<svg xmlns="http://www.w3.org/2000/svg" xmlns:xlink="http://www.w3.org/1999/xlink" width="500" zoomAndPan="magnify" viewBox="0 0 375 374.999991" height="500" preserveAspectRatio="xMidYMid meet" version="1.0"><defs><g/><clipPath id="ef6447f14a"><path d="M 182 102.402344 L 202 102.402344 L 202 192 L 182 192 Z M 182 102.402344 " clip-rule="nonzero"/></clipPath><clipPath id="5f54b18b66"><path d="M 143.070312 136 L 231.570312 136 L 231.570312 214.902344 L 143.070312 214.902344 Z M 143.070312 136 " clip-rule="nonzero"/></clipPath></defs><g clip-path="url(#ef6447f14a)"><path fill="#00adef" d="M 193.457031 116.375 C 190.460938 116.375 188.035156 113.933594 188.035156 110.921875 C 188.035156 107.90625 190.460938 105.464844 193.457031 105.464844 C 196.453125 105.464844 198.878906 107.90625 198.878906 110.921875 C 198.878906 113.933594 196.453125 116.375 193.457031 116.375 Z M 193.457031 102.398438 C 188.777344 102.398438 184.984375 106.214844 184.984375 110.921875 C 184.984375 114.980469 187.804688 118.375 191.582031 119.230469 L 191.578125 119.230469 L 191.578125 172.046875 L 182.046875 181.613281 L 182.046875 189.472656 C 183.28125 190.1875 184.535156 190.84375 185.800781 191.433594 L 185.800781 183.179688 L 195.332031 173.613281 L 195.332031 119.230469 C 195.335938 119.230469 195.335938 119.230469 195.335938 119.230469 C 199.109375 118.371094 201.929688 114.976562 201.929688 110.921875 C 201.929688 106.214844 198.136719 102.398438 193.457031 102.398438 " fill-opacity="1" fill-rule="nonzero"/></g><path fill="#00adef" d="M 174.394531 165.578125 C 171.394531 165.578125 168.96875 163.132812 168.96875 160.121094 C 168.96875 157.109375 171.394531 154.667969 174.394531 154.667969 C 177.386719 154.667969 179.816406 157.109375 179.816406 160.121094 C 179.816406 163.132812 177.386719 165.578125 174.394531 165.578125 Z M 174.394531 151.601562 C 169.714844 151.601562 165.921875 155.417969 165.921875 160.121094 C 165.921875 164.179688 168.738281 167.574219 172.515625 168.433594 L 172.515625 182.242188 C 173.6875 183.390625 174.941406 184.492188 176.273438 185.539062 L 176.273438 168.429688 C 180.046875 167.570312 182.863281 164.179688 182.863281 160.121094 C 182.863281 155.417969 179.070312 151.601562 174.394531 151.601562 " fill-opacity="1" fill-rule="nonzero"/><path fill="#00adef" d="M 201.433594 134.234375 C 201.433594 131.222656 203.859375 128.78125 206.855469 128.78125 C 209.851562 128.78125 212.277344 131.222656 212.277344 134.234375 C 212.277344 137.246094 209.851562 139.6875 206.855469 139.6875 C 203.859375 139.6875 201.433594 137.246094 201.433594 134.234375 Z M 195.449219 186.570312 L 195.449219 194.613281 C 196.71875 194.859375 197.976562 195.027344 199.203125 195.117188 L 199.203125 188.136719 L 208.734375 178.570312 L 208.734375 142.546875 C 212.511719 141.683594 215.328125 138.292969 215.328125 134.234375 C 215.328125 129.527344 211.535156 125.714844 206.855469 125.714844 C 202.175781 125.714844 198.382812 129.527344 198.382812 134.234375 C 198.382812 138.292969 201.203125 141.6875 204.980469 142.546875 L 204.980469 177.003906 L 195.449219 186.570312 " fill-opacity="1" fill-rule="nonzero"/><g clip-path="url(#5f54b18b66)"><path fill="#00adef" d="M 226.925781 183.363281 L 231.558594 181.707031 C 230.574219 178.285156 229.074219 174.800781 227.097656 171.355469 L 220.9375 169.46875 C 218.320312 165.4375 214.96875 161.503906 210.984375 157.878906 L 210.984375 162.902344 C 219.058594 172.191406 221.796875 183.128906 216.917969 190.429688 C 210.445312 200.121094 193.015625 199.746094 177.992188 189.59375 C 162.964844 179.4375 156.035156 163.351562 162.507812 153.664062 C 167.277344 146.519531 178.003906 144.847656 189.332031 148.53125 L 189.332031 144.578125 C 186.28125 143.433594 183.246094 142.574219 180.28125 141.996094 L 176.214844 136.972656 C 172.300781 136.4375 168.527344 136.355469 165 136.734375 L 165.230469 141.671875 C 161.023438 142.4375 157.304688 144 154.332031 146.375 L 148.183594 143.996094 C 147.164062 145 146.238281 146.109375 145.429688 147.320312 C 144.621094 148.53125 143.949219 149.808594 143.410156 151.140625 L 147.921875 155.964844 C 146.863281 159.628906 146.828125 163.6875 147.714844 167.890625 L 143.082031 169.546875 C 144.066406 172.96875 145.570312 176.453125 147.542969 179.898438 L 153.703125 181.785156 C 156.460938 186.03125 160.023438 190.164062 164.292969 193.945312 L 163.890625 198.664062 C 165.601562 200.042969 167.394531 201.371094 169.273438 202.640625 C 171.152344 203.910156 173.054688 205.078125 174.972656 206.152344 L 179.164062 203.992188 C 184.257812 206.539062 189.410156 208.296875 194.359375 209.257812 L 198.425781 214.28125 C 202.34375 214.816406 206.113281 214.898438 209.640625 214.519531 L 209.410156 209.582031 C 213.617188 208.816406 217.335938 207.253906 220.3125 204.878906 L 226.457031 207.261719 C 227.480469 206.253906 228.402344 205.144531 229.210938 203.933594 C 230.019531 202.722656 230.691406 201.445312 231.234375 200.113281 L 226.71875 195.289062 C 227.777344 191.625 227.8125 187.566406 226.925781 183.363281 " fill-opacity="1" fill-rule="nonzero"/></g><g fill="#000000" fill-opacity="1"><g transform="translate(156.47953, 248.987246)"><g><path d="M 13.136719 -20.585938 L 13.136719 -12.378906 L 6.355469 -12.378906 L 6.355469 -20.585938 L 1.816406 -20.585938 L 1.816406 0 L 6.355469 0 L 6.355469 -8.265625 L 13.136719 -8.265625 L 13.136719 0 L 17.980469 0 L 17.980469 -20.585938 Z M 13.136719 -20.585938 "/></g></g></g><g fill="#000000" fill-opacity="1"><g transform="translate(176.276708, 248.987246)"><g><path d="M 6.355469 -9.203125 L 12.863281 0 L 18.980469 0 L 10.777344 -10.292969 L 18.675781 -20.585938 L 12.863281 -20.585938 L 6.355469 -11.382812 L 6.355469 -20.585938 L 1.816406 -20.585938 L 1.816406 0 L 6.355469 0 Z M 6.355469 -9.203125 "/></g></g></g><g fill="#000000" fill-opacity="1"><g transform="translate(194.953859, 248.987246)"><g><path d="M 13.015625 -7.871094 L 7.808594 -7.871094 L 10.414062 -15.195312 Z M 20.707031 0 L 12.351562 -20.585938 L 8.507812 -20.585938 L 0.152344 0 L 5.023438 0 L 6.507812 -4.148438 L 14.347656 -4.148438 L 15.832031 0 Z M 20.707031 0 "/></g></g></g><g fill="#000000" fill-opacity="1"><g transform="translate(215.810527, 248.987246)"><g><path d="M 6.355469 0 L 6.355469 -20.585938 L 1.816406 -20.585938 L 1.816406 0 Z M 6.355469 0 "/></g></g></g><g fill="#000000" fill-opacity="1"><g transform="translate(223.98295, 248.987246)"><g/></g></g><g fill="#000000" fill-opacity="1"><g transform="translate(117.9653, 270.109583)"><g><path d="M 6.890625 0 L 5.78125 -2.859375 L 2.171875 -2.859375 L 1.0625 0 L 0 0 L 3.5625 -9.03125 L 4.4375 -9.03125 L 7.984375 0 Z M 5.453125 -3.8125 L 4.40625 -6.59375 C 4.269531 -6.945312 4.128906 -7.378906 3.984375 -7.890625 C 3.890625 -7.492188 3.757812 -7.0625 3.59375 -6.59375 L 2.53125 -3.8125 Z M 5.453125 -3.8125 "/></g></g></g><g fill="#000000" fill-opacity="1"><g transform="translate(125.937254, 270.109583)"><g><path d="M 4.21875 0.125 C 3.78125 0.125 3.378906 0.046875 3.015625 -0.109375 C 2.648438 -0.273438 2.347656 -0.53125 2.109375 -0.875 L 2.03125 -0.875 C 2.082031 -0.476562 2.109375 -0.101562 2.109375 0.25 L 2.109375 3.03125 L 1.078125 3.03125 L 1.078125 -6.75 L 1.921875 -6.75 L 2.0625 -5.828125 L 2.109375 -5.828125 C 2.367188 -6.191406 2.671875 -6.457031 3.015625 -6.625 C 3.367188 -6.789062 3.769531 -6.875 4.21875 -6.875 C 5.113281 -6.875 5.804688 -6.566406 6.296875 -5.953125 C 6.785156 -5.335938 7.03125 -4.476562 7.03125 -3.375 C 7.03125 -2.269531 6.78125 -1.410156 6.28125 -0.796875 C 5.789062 -0.179688 5.101562 0.125 4.21875 0.125 Z M 4.078125 -6 C 3.390625 -6 2.890625 -5.804688 2.578125 -5.421875 C 2.273438 -5.046875 2.117188 -4.441406 2.109375 -3.609375 L 2.109375 -3.375 C 2.109375 -2.425781 2.265625 -1.75 2.578125 -1.34375 C 2.890625 -0.9375 3.394531 -0.734375 4.09375 -0.734375 C 4.675781 -0.734375 5.132812 -0.96875 5.46875 -1.4375 C 5.800781 -1.914062 5.96875 -2.566406 5.96875 -3.390625 C 5.96875 -4.234375 5.800781 -4.878906 5.46875 -5.328125 C 5.132812 -5.773438 4.671875 -6 4.078125 -6 Z M 4.078125 -6 "/></g></g></g><g fill="#000000" fill-opacity="1"><g transform="translate(133.657015, 270.109583)"><g><path d="M 4.21875 0.125 C 3.78125 0.125 3.378906 0.046875 3.015625 -0.109375 C 2.648438 -0.273438 2.347656 -0.53125 2.109375 -0.875 L 2.03125 -0.875 C 2.082031 -0.476562 2.109375 -0.101562 2.109375 0.25 L 2.109375 3.03125 L 1.078125 3.03125 L 1.078125 -6.75 L 1.921875 -6.75 L 2.0625 -5.828125 L 2.109375 -5.828125 C 2.367188 -6.191406 2.671875 -6.457031 3.015625 -6.625 C 3.367188 -6.789062 3.769531 -6.875 4.21875 -6.875 C 5.113281 -6.875 5.804688 -6.566406 6.296875 -5.953125 C 6.785156 -5.335938 7.03125 -4.476562 7.03125 -3.375 C 7.03125 -2.269531 6.78125 -1.410156 6.28125 -0.796875 C 5.789062 -0.179688 5.101562 0.125 4.21875 0.125 Z M 4.078125 -6 C 3.390625 -6 2.890625 -5.804688 2.578125 -5.421875 C 2.273438 -5.046875 2.117188 -4.441406 2.109375 -3.609375 L 2.109375 -3.375 C 2.109375 -2.425781 2.265625 -1.75 2.578125 -1.34375 C 2.890625 -0.9375 3.394531 -0.734375 4.09375 -0.734375 C 4.675781 -0.734375 5.132812 -0.96875 5.46875 -1.4375 C 5.800781 -1.914062 5.96875 -2.566406 5.96875 -3.390625 C 5.96875 -4.234375 5.800781 -4.878906 5.46875 -5.328125 C 5.132812 -5.773438 4.671875 -6 4.078125 -6 Z M 4.078125 -6 "/></g></g></g><g fill="#000000" fill-opacity="1"><g transform="translate(141.376775, 270.109583)"><g><path d="M 2.109375 0 L 1.078125 0 L 1.078125 -9.578125 L 2.109375 -9.578125 Z M 2.109375 0 "/></g></g></g><g fill="#000000" fill-opacity="1"><g transform="translate(144.563096, 270.109583)"><g><path d="M 2.109375 0 L 1.078125 0 L 1.078125 -6.75 L 2.109375 -6.75 Z M 1 -8.578125 C 1 -8.804688 1.054688 -8.972656 1.171875 -9.078125 C 1.285156 -9.191406 1.425781 -9.25 1.59375 -9.25 C 1.757812 -9.25 1.898438 -9.191406 2.015625 -9.078125 C 2.140625 -8.972656 2.203125 -8.804688 2.203125 -8.578125 C 2.203125 -8.347656 2.140625 -8.175781 2.015625 -8.0625 C 1.898438 -7.945312 1.757812 -7.890625 1.59375 -7.890625 C 1.425781 -7.890625 1.285156 -7.945312 1.171875 -8.0625 C 1.054688 -8.175781 1 -8.347656 1 -8.578125 Z M 1 -8.578125 "/></g></g></g><g fill="#000000" fill-opacity="1"><g transform="translate(147.749417, 270.109583)"><g><path d="M 3.78125 0.125 C 2.800781 0.125 2.039062 -0.175781 1.5 -0.78125 C 0.96875 -1.382812 0.703125 -2.234375 0.703125 -3.328125 C 0.703125 -4.460938 0.972656 -5.335938 1.515625 -5.953125 C 2.066406 -6.566406 2.84375 -6.875 3.84375 -6.875 C 4.164062 -6.875 4.488281 -6.835938 4.8125 -6.765625 C 5.144531 -6.691406 5.398438 -6.609375 5.578125 -6.515625 L 5.265625 -5.65625 C 5.046875 -5.738281 4.800781 -5.8125 4.53125 -5.875 C 4.257812 -5.9375 4.023438 -5.96875 3.828125 -5.96875 C 2.453125 -5.96875 1.765625 -5.09375 1.765625 -3.34375 C 1.765625 -2.507812 1.929688 -1.867188 2.265625 -1.421875 C 2.597656 -0.984375 3.09375 -0.765625 3.75 -0.765625 C 4.3125 -0.765625 4.890625 -0.890625 5.484375 -1.140625 L 5.484375 -0.234375 C 5.035156 0.00390625 4.46875 0.125 3.78125 0.125 Z M 3.78125 0.125 "/></g></g></g><g fill="#000000" fill-opacity="1"><g transform="translate(153.746842, 270.109583)"><g><path d="M 5.234375 0 L 5.03125 -0.953125 L 4.984375 -0.953125 C 4.640625 -0.535156 4.300781 -0.25 3.96875 -0.09375 C 3.632812 0.0507812 3.21875 0.125 2.71875 0.125 C 2.050781 0.125 1.523438 -0.046875 1.140625 -0.390625 C 0.765625 -0.734375 0.578125 -1.222656 0.578125 -1.859375 C 0.578125 -3.222656 1.664062 -3.941406 3.84375 -4.015625 L 5 -4.046875 L 5 -4.46875 C 5 -5 4.882812 -5.390625 4.65625 -5.640625 C 4.425781 -5.890625 4.0625 -6.015625 3.5625 -6.015625 C 3 -6.015625 2.363281 -5.84375 1.65625 -5.5 L 1.34375 -6.28125 C 1.664062 -6.457031 2.023438 -6.597656 2.421875 -6.703125 C 2.816406 -6.804688 3.21875 -6.859375 3.625 -6.859375 C 4.425781 -6.859375 5.019531 -6.675781 5.40625 -6.3125 C 5.789062 -5.957031 5.984375 -5.390625 5.984375 -4.609375 L 5.984375 0 Z M 2.921875 -0.71875 C 3.554688 -0.71875 4.054688 -0.890625 4.421875 -1.234375 C 4.785156 -1.585938 4.96875 -2.078125 4.96875 -2.703125 L 4.96875 -3.3125 L 3.953125 -3.28125 C 3.140625 -3.25 2.550781 -3.117188 2.1875 -2.890625 C 1.832031 -2.671875 1.65625 -2.328125 1.65625 -1.859375 C 1.65625 -1.484375 1.765625 -1.195312 1.984375 -1 C 2.210938 -0.8125 2.523438 -0.71875 2.921875 -0.71875 Z M 2.921875 -0.71875 "/></g></g></g><g fill="#000000" fill-opacity="1"><g transform="translate(160.753063, 270.109583)"><g><path d="M 3.265625 -0.71875 C 3.441406 -0.71875 3.613281 -0.726562 3.78125 -0.75 C 3.945312 -0.78125 4.082031 -0.8125 4.1875 -0.84375 L 4.1875 -0.0625 C 4.070312 -0.0078125 3.90625 0.03125 3.6875 0.0625 C 3.476562 0.101562 3.285156 0.125 3.109375 0.125 C 1.804688 0.125 1.15625 -0.5625 1.15625 -1.9375 L 1.15625 -5.953125 L 0.1875 -5.953125 L 0.1875 -6.453125 L 1.15625 -6.875 L 1.59375 -8.3125 L 2.171875 -8.3125 L 2.171875 -6.75 L 4.140625 -6.75 L 4.140625 -5.953125 L 2.171875 -5.953125 L 2.171875 -1.984375 C 2.171875 -1.578125 2.269531 -1.265625 2.46875 -1.046875 C 2.664062 -0.828125 2.929688 -0.71875 3.265625 -0.71875 Z M 3.265625 -0.71875 "/></g></g></g><g fill="#000000" fill-opacity="1"><g transform="translate(165.200385, 270.109583)"><g><path d="M 2.109375 0 L 1.078125 0 L 1.078125 -6.75 L 2.109375 -6.75 Z M 1 -8.578125 C 1 -8.804688 1.054688 -8.972656 1.171875 -9.078125 C 1.285156 -9.191406 1.425781 -9.25 1.59375 -9.25 C 1.757812 -9.25 1.898438 -9.191406 2.015625 -9.078125 C 2.140625 -8.972656 2.203125 -8.804688 2.203125 -8.578125 C 2.203125 -8.347656 2.140625 -8.175781 2.015625 -8.0625 C 1.898438 -7.945312 1.757812 -7.890625 1.59375 -7.890625 C 1.425781 -7.890625 1.285156 -7.945312 1.171875 -8.0625 C 1.054688 -8.175781 1 -8.347656 1 -8.578125 Z M 1 -8.578125 "/></g></g></g><g fill="#000000" fill-opacity="1"><g transform="translate(168.386706, 270.109583)"><g><path d="M 6.90625 -3.375 C 6.90625 -2.28125 6.628906 -1.421875 6.078125 -0.796875 C 5.523438 -0.179688 4.757812 0.125 3.78125 0.125 C 3.175781 0.125 2.640625 -0.015625 2.171875 -0.296875 C 1.703125 -0.578125 1.335938 -0.984375 1.078125 -1.515625 C 0.828125 -2.046875 0.703125 -2.664062 0.703125 -3.375 C 0.703125 -4.476562 0.976562 -5.335938 1.53125 -5.953125 C 2.082031 -6.566406 2.847656 -6.875 3.828125 -6.875 C 4.765625 -6.875 5.507812 -6.554688 6.0625 -5.921875 C 6.625 -5.296875 6.90625 -4.445312 6.90625 -3.375 Z M 1.765625 -3.375 C 1.765625 -2.519531 1.9375 -1.863281 2.28125 -1.40625 C 2.625 -0.957031 3.132812 -0.734375 3.8125 -0.734375 C 4.476562 -0.734375 4.984375 -0.957031 5.328125 -1.40625 C 5.671875 -1.851562 5.84375 -2.507812 5.84375 -3.375 C 5.84375 -4.238281 5.671875 -4.890625 5.328125 -5.328125 C 4.984375 -5.773438 4.472656 -6 3.796875 -6 C 3.128906 -6 2.625 -5.78125 2.28125 -5.34375 C 1.9375 -4.90625 1.765625 -4.25 1.765625 -3.375 Z M 1.765625 -3.375 "/></g></g></g><g fill="#000000" fill-opacity="1"><g transform="translate(175.995745, 270.109583)"><g><path d="M 5.703125 0 L 5.703125 -4.359375 C 5.703125 -4.910156 5.578125 -5.320312 5.328125 -5.59375 C 5.078125 -5.863281 4.6875 -6 4.15625 -6 C 3.445312 -6 2.925781 -5.804688 2.59375 -5.421875 C 2.269531 -5.046875 2.109375 -4.421875 2.109375 -3.546875 L 2.109375 0 L 1.078125 0 L 1.078125 -6.75 L 1.921875 -6.75 L 2.078125 -5.828125 L 2.125 -5.828125 C 2.332031 -6.160156 2.625 -6.414062 3 -6.59375 C 3.382812 -6.78125 3.804688 -6.875 4.265625 -6.875 C 5.078125 -6.875 5.6875 -6.675781 6.09375 -6.28125 C 6.507812 -5.882812 6.71875 -5.257812 6.71875 -4.40625 L 6.71875 0 Z M 5.703125 0 "/></g></g></g><g fill="#000000" fill-opacity="1"><g transform="translate(183.727808, 270.109583)"><g/></g></g><g fill="#000000" fill-opacity="1"><g transform="translate(187.000246, 270.109583)"><g><path d="M 6.890625 0 L 5.78125 -2.859375 L 2.171875 -2.859375 L 1.0625 0 L 0 0 L 3.5625 -9.03125 L 4.4375 -9.03125 L 7.984375 0 Z M 5.453125 -3.8125 L 4.40625 -6.59375 C 4.269531 -6.945312 4.128906 -7.378906 3.984375 -7.890625 C 3.890625 -7.492188 3.757812 -7.0625 3.59375 -6.59375 L 2.53125 -3.8125 Z M 5.453125 -3.8125 "/></g></g></g><g fill="#000000" fill-opacity="1"><g transform="translate(194.9722, 270.109583)"><g><path d="M 5.4375 -1.84375 C 5.4375 -1.21875 5.203125 -0.734375 4.734375 -0.390625 C 4.265625 -0.046875 3.609375 0.125 2.765625 0.125 C 1.867188 0.125 1.171875 -0.015625 0.671875 -0.296875 L 0.671875 -1.25 C 0.992188 -1.082031 1.335938 -0.953125 1.703125 -0.859375 C 2.078125 -0.765625 2.441406 -0.71875 2.796875 -0.71875 C 3.328125 -0.71875 3.734375 -0.800781 4.015625 -0.96875 C 4.304688 -1.144531 4.453125 -1.40625 4.453125 -1.75 C 4.453125 -2.019531 4.335938 -2.242188 4.109375 -2.421875 C 3.878906 -2.609375 3.4375 -2.832031 2.78125 -3.09375 C 2.144531 -3.320312 1.695312 -3.523438 1.4375 -3.703125 C 1.175781 -3.878906 0.976562 -4.078125 0.84375 -4.296875 C 0.71875 -4.515625 0.65625 -4.78125 0.65625 -5.09375 C 0.65625 -5.644531 0.878906 -6.078125 1.328125 -6.390625 C 1.773438 -6.710938 2.390625 -6.875 3.171875 -6.875 C 3.890625 -6.875 4.597656 -6.722656 5.296875 -6.421875 L 4.9375 -5.59375 C 4.257812 -5.875 3.644531 -6.015625 3.09375 -6.015625 C 2.601562 -6.015625 2.234375 -5.9375 1.984375 -5.78125 C 1.742188 -5.632812 1.625 -5.425781 1.625 -5.15625 C 1.625 -4.976562 1.671875 -4.820312 1.765625 -4.6875 C 1.859375 -4.5625 2.003906 -4.441406 2.203125 -4.328125 C 2.410156 -4.210938 2.804688 -4.046875 3.390625 -3.828125 C 4.191406 -3.546875 4.734375 -3.253906 5.015625 -2.953125 C 5.296875 -2.660156 5.4375 -2.289062 5.4375 -1.84375 Z M 5.4375 -1.84375 "/></g></g></g><g fill="#000000" fill-opacity="1"><g transform="translate(200.981927, 270.109583)"><g><path d="M 5.4375 -1.84375 C 5.4375 -1.21875 5.203125 -0.734375 4.734375 -0.390625 C 4.265625 -0.046875 3.609375 0.125 2.765625 0.125 C 1.867188 0.125 1.171875 -0.015625 0.671875 -0.296875 L 0.671875 -1.25 C 0.992188 -1.082031 1.335938 -0.953125 1.703125 -0.859375 C 2.078125 -0.765625 2.441406 -0.71875 2.796875 -0.71875 C 3.328125 -0.71875 3.734375 -0.800781 4.015625 -0.96875 C 4.304688 -1.144531 4.453125 -1.40625 4.453125 -1.75 C 4.453125 -2.019531 4.335938 -2.242188 4.109375 -2.421875 C 3.878906 -2.609375 3.4375 -2.832031 2.78125 -3.09375 C 2.144531 -3.320312 1.695312 -3.523438 1.4375 -3.703125 C 1.175781 -3.878906 0.976562 -4.078125 0.84375 -4.296875 C 0.71875 -4.515625 0.65625 -4.78125 0.65625 -5.09375 C 0.65625 -5.644531 0.878906 -6.078125 1.328125 -6.390625 C 1.773438 -6.710938 2.390625 -6.875 3.171875 -6.875 C 3.890625 -6.875 4.597656 -6.722656 5.296875 -6.421875 L 4.9375 -5.59375 C 4.257812 -5.875 3.644531 -6.015625 3.09375 -6.015625 C 2.601562 -6.015625 2.234375 -5.9375 1.984375 -5.78125 C 1.742188 -5.632812 1.625 -5.425781 1.625 -5.15625 C 1.625 -4.976562 1.671875 -4.820312 1.765625 -4.6875 C 1.859375 -4.5625 2.003906 -4.441406 2.203125 -4.328125 C 2.410156 -4.210938 2.804688 -4.046875 3.390625 -3.828125 C 4.191406 -3.546875 4.734375 -3.253906 5.015625 -2.953125 C 5.296875 -2.660156 5.4375 -2.289062 5.4375 -1.84375 Z M 5.4375 -1.84375 "/></g></g></g><g fill="#000000" fill-opacity="1"><g transform="translate(206.991654, 270.109583)"><g><path d="M 6.90625 -3.375 C 6.90625 -2.28125 6.628906 -1.421875 6.078125 -0.796875 C 5.523438 -0.179688 4.757812 0.125 3.78125 0.125 C 3.175781 0.125 2.640625 -0.015625 2.171875 -0.296875 C 1.703125 -0.578125 1.335938 -0.984375 1.078125 -1.515625 C 0.828125 -2.046875 0.703125 -2.664062 0.703125 -3.375 C 0.703125 -4.476562 0.976562 -5.335938 1.53125 -5.953125 C 2.082031 -6.566406 2.847656 -6.875 3.828125 -6.875 C 4.765625 -6.875 5.507812 -6.554688 6.0625 -5.921875 C 6.625 -5.296875 6.90625 -4.445312 6.90625 -3.375 Z M 1.765625 -3.375 C 1.765625 -2.519531 1.9375 -1.863281 2.28125 -1.40625 C 2.625 -0.957031 3.132812 -0.734375 3.8125 -0.734375 C 4.476562 -0.734375 4.984375 -0.957031 5.328125 -1.40625 C 5.671875 -1.851562 5.84375 -2.507812 5.84375 -3.375 C 5.84375 -4.238281 5.671875 -4.890625 5.328125 -5.328125 C 4.984375 -5.773438 4.472656 -6 3.796875 -6 C 3.128906 -6 2.625 -5.78125 2.28125 -5.34375 C 1.9375 -4.90625 1.765625 -4.25 1.765625 -3.375 Z M 1.765625 -3.375 "/></g></g></g><g fill="#000000" fill-opacity="1"><g transform="translate(214.600693, 270.109583)"><g><path d="M 3.78125 0.125 C 2.800781 0.125 2.039062 -0.175781 1.5 -0.78125 C 0.96875 -1.382812 0.703125 -2.234375 0.703125 -3.328125 C 0.703125 -4.460938 0.972656 -5.335938 1.515625 -5.953125 C 2.066406 -6.566406 2.84375 -6.875 3.84375 -6.875 C 4.164062 -6.875 4.488281 -6.835938 4.8125 -6.765625 C 5.144531 -6.691406 5.398438 -6.609375 5.578125 -6.515625 L 5.265625 -5.65625 C 5.046875 -5.738281 4.800781 -5.8125 4.53125 -5.875 C 4.257812 -5.9375 4.023438 -5.96875 3.828125 -5.96875 C 2.453125 -5.96875 1.765625 -5.09375 1.765625 -3.34375 C 1.765625 -2.507812 1.929688 -1.867188 2.265625 -1.421875 C 2.597656 -0.984375 3.09375 -0.765625 3.75 -0.765625 C 4.3125 -0.765625 4.890625 -0.890625 5.484375 -1.140625 L 5.484375 -0.234375 C 5.035156 0.00390625 4.46875 0.125 3.78125 0.125 Z M 3.78125 0.125 "/></g></g></g><g fill="#000000" fill-opacity="1"><g transform="translate(220.598117, 270.109583)"><g><path d="M 2.109375 0 L 1.078125 0 L 1.078125 -6.75 L 2.109375 -6.75 Z M 1 -8.578125 C 1 -8.804688 1.054688 -8.972656 1.171875 -9.078125 C 1.285156 -9.191406 1.425781 -9.25 1.59375 -9.25 C 1.757812 -9.25 1.898438 -9.191406 2.015625 -9.078125 C 2.140625 -8.972656 2.203125 -8.804688 2.203125 -8.578125 C 2.203125 -8.347656 2.140625 -8.175781 2.015625 -8.0625 C 1.898438 -7.945312 1.757812 -7.890625 1.59375 -7.890625 C 1.425781 -7.890625 1.285156 -7.945312 1.171875 -8.0625 C 1.054688 -8.175781 1 -8.347656 1 -8.578125 Z M 1 -8.578125 "/></g></g></g><g fill="#000000" fill-opacity="1"><g transform="translate(223.784438, 270.109583)"><g><path d="M 5.234375 0 L 5.03125 -0.953125 L 4.984375 -0.953125 C 4.640625 -0.535156 4.300781 -0.25 3.96875 -0.09375 C 3.632812 0.0507812 3.21875 0.125 2.71875 0.125 C 2.050781 0.125 1.523438 -0.046875 1.140625 -0.390625 C 0.765625 -0.734375 0.578125 -1.222656 0.578125 -1.859375 C 0.578125 -3.222656 1.664062 -3.941406 3.84375 -4.015625 L 5 -4.046875 L 5 -4.46875 C 5 -5 4.882812 -5.390625 4.65625 -5.640625 C 4.425781 -5.890625 4.0625 -6.015625 3.5625 -6.015625 C 3 -6.015625 2.363281 -5.84375 1.65625 -5.5 L 1.34375 -6.28125 C 1.664062 -6.457031 2.023438 -6.597656 2.421875 -6.703125 C 2.816406 -6.804688 3.21875 -6.859375 3.625 -6.859375 C 4.425781 -6.859375 5.019531 -6.675781 5.40625 -6.3125 C 5.789062 -5.957031 5.984375 -5.390625 5.984375 -4.609375 L 5.984375 0 Z M 2.921875 -0.71875 C 3.554688 -0.71875 4.054688 -0.890625 4.421875 -1.234375 C 4.785156 -1.585938 4.96875 -2.078125 4.96875 -2.703125 L 4.96875 -3.3125 L 3.953125 -3.28125 C 3.140625 -3.25 2.550781 -3.117188 2.1875 -2.890625 C 1.832031 -2.671875 1.65625 -2.328125 1.65625 -1.859375 C 1.65625 -1.484375 1.765625 -1.195312 1.984375 -1 C 2.210938 -0.8125 2.523438 -0.71875 2.921875 -0.71875 Z M 2.921875 -0.71875 "/></g></g></g><g fill="#000000" fill-opacity="1"><g transform="translate(230.79066, 270.109583)"><g><path d="M 3.265625 -0.71875 C 3.441406 -0.71875 3.613281 -0.726562 3.78125 -0.75 C 3.945312 -0.78125 4.082031 -0.8125 4.1875 -0.84375 L 4.1875 -0.0625 C 4.070312 -0.0078125 3.90625 0.03125 3.6875 0.0625 C 3.476562 0.101562 3.285156 0.125 3.109375 0.125 C 1.804688 0.125 1.15625 -0.5625 1.15625 -1.9375 L 1.15625 -5.953125 L 0.1875 -5.953125 L 0.1875 -6.453125 L 1.15625 -6.875 L 1.59375 -8.3125 L 2.171875 -8.3125 L 2.171875 -6.75 L 4.140625 -6.75 L 4.140625 -5.953125 L 2.171875 -5.953125 L 2.171875 -1.984375 C 2.171875 -1.578125 2.269531 -1.265625 2.46875 -1.046875 C 2.664062 -0.828125 2.929688 -0.71875 3.265625 -0.71875 Z M 3.265625 -0.71875 "/></g></g></g><g fill="#000000" fill-opacity="1"><g transform="translate(235.237982, 270.109583)"><g><path d="M 2.109375 0 L 1.078125 0 L 1.078125 -6.75 L 2.109375 -6.75 Z M 1 -8.578125 C 1 -8.804688 1.054688 -8.972656 1.171875 -9.078125 C 1.285156 -9.191406 1.425781 -9.25 1.59375 -9.25 C 1.757812 -9.25 1.898438 -9.191406 2.015625 -9.078125 C 2.140625 -8.972656 2.203125 -8.804688 2.203125 -8.578125 C 2.203125 -8.347656 2.140625 -8.175781 2.015625 -8.0625 C 1.898438 -7.945312 1.757812 -7.890625 1.59375 -7.890625 C 1.425781 -7.890625 1.285156 -7.945312 1.171875 -8.0625 C 1.054688 -8.175781 1 -8.347656 1 -8.578125 Z M 1 -8.578125 "/></g></g></g><g fill="#000000" fill-opacity="1"><g transform="translate(238.424303, 270.109583)"><g><path d="M 6.90625 -3.375 C 6.90625 -2.28125 6.628906 -1.421875 6.078125 -0.796875 C 5.523438 -0.179688 4.757812 0.125 3.78125 0.125 C 3.175781 0.125 2.640625 -0.015625 2.171875 -0.296875 C 1.703125 -0.578125 1.335938 -0.984375 1.078125 -1.515625 C 0.828125 -2.046875 0.703125 -2.664062 0.703125 -3.375 C 0.703125 -4.476562 0.976562 -5.335938 1.53125 -5.953125 C 2.082031 -6.566406 2.847656 -6.875 3.828125 -6.875 C 4.765625 -6.875 5.507812 -6.554688 6.0625 -5.921875 C 6.625 -5.296875 6.90625 -4.445312 6.90625 -3.375 Z M 1.765625 -3.375 C 1.765625 -2.519531 1.9375 -1.863281 2.28125 -1.40625 C 2.625 -0.957031 3.132812 -0.734375 3.8125 -0.734375 C 4.476562 -0.734375 4.984375 -0.957031 5.328125 -1.40625 C 5.671875 -1.851562 5.84375 -2.507812 5.84375 -3.375 C 5.84375 -4.238281 5.671875 -4.890625 5.328125 -5.328125 C 4.984375 -5.773438 4.472656 -6 3.796875 -6 C 3.128906 -6 2.625 -5.78125 2.28125 -5.34375 C 1.9375 -4.90625 1.765625 -4.25 1.765625 -3.375 Z M 1.765625 -3.375 "/></g></g></g><g fill="#000000" fill-opacity="1"><g transform="translate(246.033342, 270.109583)"><g><path d="M 5.703125 0 L 5.703125 -4.359375 C 5.703125 -4.910156 5.578125 -5.320312 5.328125 -5.59375 C 5.078125 -5.863281 4.6875 -6 4.15625 -6 C 3.445312 -6 2.925781 -5.804688 2.59375 -5.421875 C 2.269531 -5.046875 2.109375 -4.421875 2.109375 -3.546875 L 2.109375 0 L 1.078125 0 L 1.078125 -6.75 L 1.921875 -6.75 L 2.078125 -5.828125 L 2.125 -5.828125 C 2.332031 -6.160156 2.625 -6.414062 3 -6.59375 C 3.382812 -6.78125 3.804688 -6.875 4.265625 -6.875 C 5.078125 -6.875 5.6875 -6.675781 6.09375 -6.28125 C 6.507812 -5.882812 6.71875 -5.257812 6.71875 -4.40625 L 6.71875 0 Z M 5.703125 0 "/></g></g></g><g fill="#000000" fill-opacity="1"><g transform="translate(253.76217, 270.109583)"><g/></g></g></svg>