<svg width="211" height="65" viewBox="0 0 211 65" fill="none" xmlns="http://www.w3.org/2000/svg">
<path d="M98.9298 17V21.1145H93.1612V17H89.3V27.3204H93.1612V23.1766H98.9298V27.3204H103.05V17H98.9298Z" fill="#F5F5F5"/>
<path d="M110.002 22.7066L115.538 27.3204H120.742L113.764 22.1602L120.483 17H115.538L110.002 21.6138V17H106.141V27.3204H110.002V22.7066Z" fill="white"/>
<path d="M131.556 23.3744H127.126L129.343 19.7025L131.556 23.3744ZM138.098 27.3204L130.991 17H127.721L120.613 27.3204H124.757L126.02 25.2407H132.689L133.951 27.3204H138.098Z" fill="white"/>
<path d="M143.632 27.3204V17H139.771V27.3204H143.632Z" fill="white"/>
<path d="M91.8616 39.9097L90.9179 38.4762H87.8475L86.9038 39.9097H86L89.0305 35.3821H89.7748L92.792 39.9097H91.8616ZM90.6388 37.9984L89.7483 36.6041C89.6319 36.4278 89.5123 36.2105 89.3894 35.9539C89.3096 36.1537 89.1966 36.3691 89.0571 36.6041L88.1533 37.9984H90.6388Z" fill="white"/>
<path d="M96.3702 39.9724C95.9981 39.9724 95.6558 39.9332 95.3468 39.8549C95.0344 39.7727 94.7785 39.6434 94.5758 39.4711H94.5094C94.5526 39.6708 94.5758 39.8588 94.5758 40.0351V41.4294H93.6986V36.5257H94.4163L94.536 36.9879H94.5758C94.7952 36.8058 95.0543 36.6726 95.3468 36.5884C95.6458 36.5062 95.9881 36.4631 96.3702 36.4631C97.1312 36.4631 97.7193 36.6178 98.138 36.9252C98.5534 37.2347 98.7627 37.6655 98.7627 38.2177C98.7627 38.7719 98.5501 39.2028 98.1247 39.5102C97.706 39.8197 97.1212 39.9724 96.3702 39.9724ZM96.2506 36.9017C95.6658 36.9017 95.2404 36.9997 94.9746 37.1916C94.7154 37.3796 94.5825 37.6831 94.5758 38.1002V38.2177C94.5758 38.6936 94.7088 39.0324 94.9746 39.2361C95.2404 39.4397 95.6691 39.5416 96.2639 39.5416C96.759 39.5416 97.1478 39.4241 97.4336 39.1891C97.716 38.9502 97.8589 38.6231 97.8589 38.2099C97.8589 37.7869 97.716 37.4638 97.4336 37.2386C97.1478 37.0153 96.7557 36.9017 96.2506 36.9017Z" fill="white"/>
<path d="M102.937 39.9724C102.565 39.9724 102.223 39.9332 101.914 39.8549C101.601 39.7727 101.346 39.6434 101.143 39.4711H101.076C101.12 39.6708 101.143 39.8588 101.143 40.0351V41.4294H100.266V36.5257H100.983L101.103 36.9879H101.143C101.362 36.8058 101.621 36.6726 101.914 36.5884C102.213 36.5062 102.555 36.4631 102.937 36.4631C103.698 36.4631 104.286 36.6178 104.705 36.9252C105.12 37.2347 105.33 37.6655 105.33 38.2177C105.33 38.7719 105.117 39.2028 104.692 39.5102C104.273 39.8197 103.688 39.9724 102.937 39.9724ZM102.818 36.9017C102.233 36.9017 101.807 36.9997 101.542 37.1916C101.282 37.3796 101.149 37.6831 101.143 38.1002V38.2177C101.143 38.6936 101.276 39.0324 101.542 39.2361C101.807 39.4397 102.236 39.5416 102.831 39.5416C103.326 39.5416 103.715 39.4241 104.001 39.1891C104.283 38.9502 104.426 38.6231 104.426 38.2099C104.426 37.7869 104.283 37.4638 104.001 37.2386C103.715 37.0153 103.323 36.9017 102.818 36.9017Z" fill="white"/>
<path d="M107.71 39.9097H106.832V35.1079H107.71V39.9097Z" fill="white"/>
<path d="M110.42 39.9098H109.543V36.5258H110.42V39.9098ZM109.477 35.6093C109.477 35.4957 109.523 35.4115 109.623 35.3586C109.719 35.3018 109.839 35.2724 109.982 35.2724C110.121 35.2724 110.241 35.3018 110.34 35.3586C110.447 35.4115 110.5 35.4957 110.5 35.6093C110.5 35.7248 110.447 35.811 110.34 35.8678C110.241 35.9265 110.121 35.9539 109.982 35.9539C109.839 35.9539 109.719 35.9265 109.623 35.8678C109.523 35.811 109.477 35.7248 109.477 35.6093Z" fill="white"/>
<path d="M114.553 39.9724C113.719 39.9724 113.071 39.8216 112.612 39.5181C112.16 39.2165 111.934 38.7896 111.934 38.2412C111.934 37.6733 112.164 37.2347 112.626 36.9252C113.094 36.6178 113.755 36.4631 114.606 36.4631C114.879 36.4631 115.154 36.4827 115.43 36.5179C115.713 36.5551 115.929 36.5962 116.081 36.6432L115.816 37.0741C115.63 37.0329 115.42 36.9957 115.191 36.9644C114.958 36.9331 114.759 36.9174 114.593 36.9174C113.423 36.9174 112.838 37.3561 112.838 38.2334C112.838 38.6525 112.978 38.9737 113.264 39.1969C113.546 39.4162 113.968 39.5259 114.526 39.5259C115.005 39.5259 115.497 39.4632 116.002 39.3379V39.7922C115.62 39.9117 115.138 39.9724 114.553 39.9724Z" fill="white"/>
<path d="M120.891 39.9098L120.718 39.4319H120.678C120.386 39.6415 120.097 39.7844 119.814 39.8628C119.528 39.9352 119.176 39.9724 118.751 39.9724C118.183 39.9724 117.734 39.8863 117.408 39.7139C117.089 39.5416 116.93 39.2968 116.93 38.9776C116.93 38.2942 117.854 37.9338 119.708 37.8966L120.692 37.8809V37.6694C120.692 37.4031 120.592 37.2073 120.399 37.0819C120.203 36.9566 119.894 36.8939 119.469 36.8939C118.99 36.8939 118.449 36.9801 117.847 37.1524L117.581 36.7608C117.854 36.6727 118.159 36.6022 118.498 36.5493C118.834 36.4984 119.176 36.4709 119.522 36.4709C120.203 36.4709 120.708 36.563 121.037 36.7451C121.363 36.9233 121.529 37.2073 121.529 37.5989V39.9098H120.891ZM118.924 39.5494C119.462 39.5494 119.887 39.4633 120.2 39.2909C120.509 39.1147 120.665 38.8679 120.665 38.5546V38.2491L119.801 38.2648C119.11 38.2804 118.608 38.347 118.299 38.4606C117.997 38.5703 117.847 38.7426 117.847 38.9776C117.847 39.1656 117.94 39.3105 118.126 39.4084C118.319 39.5024 118.585 39.5494 118.924 39.5494Z" fill="white"/>
<path d="M125.176 39.5494C125.326 39.5494 125.472 39.5455 125.615 39.5338C125.754 39.5181 125.871 39.5024 125.96 39.4868V39.8784C125.861 39.9058 125.721 39.9254 125.535 39.9411C125.356 39.9607 125.193 39.9724 125.043 39.9724C123.933 39.9724 123.382 39.6278 123.382 38.9384V36.9253H122.558V36.6746L123.382 36.4631L123.754 35.7424H124.246V36.5258H125.92V36.9253H124.246V38.9149C124.246 39.1186 124.329 39.2753 124.498 39.3849C124.664 39.4946 124.89 39.5494 125.176 39.5494Z" fill="white"/>
<path d="M127.976 39.9098H127.098V36.5258H127.976V39.9098ZM127.032 35.6093C127.032 35.4957 127.079 35.4115 127.178 35.3586C127.275 35.3018 127.394 35.2724 127.537 35.2724C127.677 35.2724 127.796 35.3018 127.896 35.3586C128.002 35.4115 128.055 35.4957 128.055 35.6093C128.055 35.7248 128.002 35.811 127.896 35.8678C127.796 35.9265 127.677 35.9539 127.537 35.9539C127.394 35.9539 127.275 35.9265 127.178 35.8678C127.079 35.811 127.032 35.7248 127.032 35.6093Z" fill="white"/>
<path d="M134.767 38.2177C134.767 38.7661 134.531 39.1969 134.062 39.5102C133.59 39.8197 132.939 39.9724 132.108 39.9724C131.593 39.9724 131.138 39.9019 130.739 39.7609C130.341 39.6199 130.028 39.4162 129.809 39.1499C129.596 38.8836 129.49 38.5742 129.49 38.2177C129.49 37.6655 129.723 37.2347 130.194 36.9252C130.663 36.6178 131.314 36.4631 132.148 36.4631C132.946 36.4631 133.577 36.6237 134.049 36.9409C134.527 37.2542 134.767 37.6812 134.767 38.2177ZM130.394 38.2177C130.394 38.6466 130.54 38.9756 130.832 39.2047C131.125 39.4299 131.557 39.5416 132.135 39.5416C132.7 39.5416 133.132 39.4299 133.424 39.2047C133.717 38.9815 133.863 38.6525 133.863 38.2177C133.863 37.7849 133.717 37.4579 133.424 37.2386C133.132 37.0153 132.697 36.9017 132.122 36.9017C131.553 36.9017 131.125 37.0114 130.832 37.2307C130.54 37.4501 130.394 37.7791 130.394 38.2177Z" fill="white"/>
<path d="M140.216 39.9097V37.7242C140.216 37.4481 140.11 37.2425 139.897 37.1054C139.684 36.9703 139.352 36.9017 138.9 36.9017C138.295 36.9017 137.853 36.9997 137.571 37.1916C137.295 37.3796 137.159 37.6929 137.159 38.1316V39.9097H136.282V36.5257H136.999L137.132 36.9879H137.172C137.348 36.8214 137.598 36.6942 137.917 36.6041C138.242 36.5101 138.601 36.4631 138.993 36.4631C139.684 36.4631 140.203 36.5629 140.548 36.7607C140.901 36.9605 141.08 37.2738 141.08 37.7007V39.9097H140.216Z" fill="white"/>
<path d="M150.587 39.9097L149.644 38.4762H146.573L145.63 39.9097H144.726L147.756 35.3821H148.501L151.518 39.9097H150.587ZM149.365 37.9984L148.474 36.6041C148.358 36.4278 148.238 36.2105 148.115 35.9539C148.035 36.1537 147.922 36.3691 147.783 36.6041L146.879 37.9984H149.365Z" fill="white"/>
<path d="M156.133 38.9854C156.133 39.2987 155.933 39.5416 155.535 39.7139C155.136 39.8862 154.578 39.9724 153.86 39.9724C153.096 39.9724 152.504 39.9019 152.079 39.7609V39.2831C152.351 39.3673 152.644 39.4319 152.956 39.4789C153.275 39.5259 153.584 39.5494 153.886 39.5494C154.338 39.5494 154.684 39.5083 154.923 39.4241C155.169 39.3359 155.295 39.2047 155.295 39.0324C155.295 38.8973 155.196 38.7857 155.003 38.6956C154.807 38.6016 154.431 38.4899 153.873 38.3587C153.331 38.2452 152.949 38.1433 152.73 38.0532C152.507 37.9651 152.338 37.8652 152.225 37.7556C152.119 37.6459 152.065 37.5127 152.065 37.3561C152.065 37.0799 152.255 36.8626 152.637 36.7059C153.016 36.5453 153.541 36.4631 154.205 36.4631C154.817 36.4631 155.418 36.5394 156.013 36.6902L155.707 37.1054C155.129 36.9644 154.607 36.8939 154.139 36.8939C153.72 36.8939 153.408 36.9331 153.195 37.0114C152.989 37.0858 152.89 37.1896 152.89 37.3247C152.89 37.4148 152.929 37.4932 153.009 37.5597C153.089 37.6224 153.212 37.6831 153.381 37.7399C153.557 37.7987 153.893 37.8809 154.392 37.9906C155.073 38.1316 155.535 38.2784 155.774 38.4292C156.013 38.5761 156.133 38.7622 156.133 38.9854Z" fill="white"/>
<path d="M161.245 38.9854C161.245 39.2987 161.046 39.5416 160.647 39.7139C160.248 39.8862 159.69 39.9724 158.972 39.9724C158.208 39.9724 157.616 39.9019 157.191 39.7609V39.2831C157.464 39.3673 157.756 39.4319 158.068 39.4789C158.387 39.5259 158.696 39.5494 158.999 39.5494C159.451 39.5494 159.796 39.5083 160.035 39.4241C160.281 39.3359 160.408 39.2047 160.408 39.0324C160.408 38.8973 160.308 38.7857 160.115 38.6956C159.919 38.6016 159.544 38.4899 158.985 38.3587C158.444 38.2452 158.062 38.1433 157.842 38.0532C157.62 37.9651 157.45 37.8652 157.337 37.7556C157.231 37.6459 157.178 37.5127 157.178 37.3561C157.178 37.0799 157.367 36.8626 157.749 36.7059C158.128 36.5453 158.653 36.4631 159.318 36.4631C159.929 36.4631 160.531 36.5394 161.125 36.6902L160.82 37.1054C160.241 36.9644 159.72 36.8939 159.251 36.8939C158.833 36.8939 158.52 36.9331 158.308 37.0114C158.102 37.0858 158.002 37.1896 158.002 37.3247C158.002 37.4148 158.042 37.4932 158.121 37.5597C158.201 37.6224 158.324 37.6831 158.494 37.7399C158.67 37.7987 159.005 37.8809 159.504 37.9906C160.185 38.1316 160.647 38.2784 160.886 38.4292C161.125 38.5761 161.245 38.7622 161.245 38.9854Z" fill="white"/>
<path d="M167.607 38.2177C167.607 38.7661 167.371 39.1969 166.902 39.5102C166.43 39.8197 165.779 39.9724 164.948 39.9724C164.433 39.9724 163.978 39.9019 163.579 39.7609C163.181 39.6199 162.868 39.4162 162.649 39.1499C162.436 38.8836 162.33 38.5742 162.33 38.2177C162.33 37.6655 162.562 37.2347 163.034 36.9252C163.503 36.6178 164.154 36.4631 164.988 36.4631C165.786 36.4631 166.417 36.6237 166.889 36.9409C167.367 37.2542 167.607 37.6812 167.607 38.2177ZM163.234 38.2177C163.234 38.6466 163.38 38.9756 163.672 39.2047C163.965 39.4299 164.397 39.5416 164.975 39.5416C165.54 39.5416 165.972 39.4299 166.264 39.2047C166.557 38.9815 166.703 38.6525 166.703 38.2177C166.703 37.7849 166.557 37.4579 166.264 37.2386C165.972 37.0153 165.537 36.9017 164.962 36.9017C164.393 36.9017 163.965 37.0114 163.672 37.2307C163.38 37.4501 163.234 37.7791 163.234 38.2177Z" fill="white"/>
<path d="M171.421 39.9724C170.587 39.9724 169.939 39.8216 169.481 39.5181C169.029 39.2165 168.803 38.7896 168.803 38.2412C168.803 37.6733 169.032 37.2347 169.494 36.9252C169.962 36.6178 170.624 36.4631 171.474 36.4631C171.747 36.4631 172.023 36.4827 172.298 36.5179C172.581 36.5551 172.797 36.5962 172.95 36.6432L172.684 37.0741C172.498 37.0329 172.288 36.9957 172.059 36.9644C171.826 36.9331 171.627 36.9174 171.461 36.9174C170.291 36.9174 169.706 37.3561 169.706 38.2334C169.706 38.6525 169.846 38.9737 170.132 39.1969C170.414 39.4162 170.836 39.5259 171.395 39.5259C171.873 39.5259 172.365 39.4632 172.87 39.3379V39.7922C172.488 39.9117 172.006 39.9724 171.421 39.9724Z" fill="white"/>
<path d="M175.101 39.9098H174.223V36.5258H175.101V39.9098ZM174.157 35.6093C174.157 35.4957 174.204 35.4115 174.303 35.3586C174.4 35.3018 174.519 35.2724 174.662 35.2724C174.802 35.2724 174.921 35.3018 175.021 35.3586C175.127 35.4115 175.18 35.4957 175.18 35.6093C175.18 35.7248 175.127 35.811 175.021 35.8678C174.921 35.9265 174.802 35.9539 174.662 35.9539C174.519 35.9539 174.4 35.9265 174.303 35.8678C174.204 35.811 174.157 35.7248 174.157 35.6093Z" fill="white"/>
<path d="M180.47 39.9098L180.297 39.4319H180.257C179.964 39.6415 179.675 39.7844 179.393 39.8628C179.107 39.9352 178.755 39.9724 178.33 39.9724C177.761 39.9724 177.313 39.8863 176.987 39.7139C176.668 39.5416 176.509 39.2968 176.509 38.9776C176.509 38.2942 177.432 37.9338 179.287 37.8966L180.27 37.8809V37.6694C180.27 37.4031 180.17 37.2073 179.978 37.0819C179.782 36.9566 179.473 36.8939 179.047 36.8939C178.569 36.8939 178.027 36.9801 177.426 37.1524L177.16 36.7608C177.432 36.6727 177.738 36.6022 178.077 36.5493C178.413 36.4984 178.755 36.4709 179.1 36.4709C179.782 36.4709 180.287 36.563 180.616 36.7451C180.941 36.9233 181.108 37.2073 181.108 37.5989V39.9098H180.47ZM178.502 39.5494C179.041 39.5494 179.466 39.4633 179.778 39.2909C180.087 39.1147 180.244 38.8679 180.244 38.5546V38.2491L179.38 38.2648C178.688 38.2804 178.187 38.347 177.878 38.4606C177.575 38.5703 177.426 38.7426 177.426 38.9776C177.426 39.1656 177.519 39.3105 177.705 39.4084C177.898 39.5024 178.163 39.5494 178.502 39.5494Z" fill="white"/>
<path d="M184.755 39.5494C184.904 39.5494 185.05 39.5455 185.193 39.5338C185.333 39.5181 185.449 39.5024 185.539 39.4868V39.8784C185.439 39.9058 185.3 39.9254 185.114 39.9411C184.934 39.9607 184.771 39.9724 184.622 39.9724C183.512 39.9724 182.96 39.6278 182.96 38.9384V36.9253H182.136V36.6746L182.96 36.4631L183.333 35.7424H183.824V36.5258H185.499V36.9253H183.824V38.9149C183.824 39.1186 183.907 39.2753 184.077 39.3849C184.243 39.4946 184.469 39.5494 184.755 39.5494Z" fill="white"/>
<path d="M187.554 39.9098H186.677V36.5258H187.554V39.9098ZM186.611 35.6093C186.611 35.4957 186.657 35.4115 186.757 35.3586C186.853 35.3018 186.973 35.2724 187.116 35.2724C187.255 35.2724 187.375 35.3018 187.475 35.3586C187.581 35.4115 187.634 35.4957 187.634 35.6093C187.634 35.7248 187.581 35.811 187.475 35.8678C187.375 35.9265 187.255 35.9539 187.116 35.9539C186.973 35.9539 186.853 35.9265 186.757 35.8678C186.657 35.811 186.611 35.7248 186.611 35.6093Z" fill="white"/>
<path d="M194.345 38.2177C194.345 38.7661 194.109 39.1969 193.641 39.5102C193.169 39.8197 192.518 39.9724 191.687 39.9724C191.172 39.9724 190.717 39.9019 190.318 39.7609C189.919 39.6199 189.607 39.4162 189.388 39.1499C189.175 38.8836 189.069 38.5742 189.069 38.2177C189.069 37.6655 189.301 37.2347 189.773 36.9252C190.242 36.6178 190.893 36.4631 191.727 36.4631C192.524 36.4631 193.156 36.6237 193.628 36.9409C194.106 37.2542 194.345 37.6812 194.345 38.2177ZM189.972 38.2177C189.972 38.6466 190.119 38.9756 190.411 39.2047C190.703 39.4299 191.135 39.5416 191.714 39.5416C192.279 39.5416 192.711 39.4299 193.003 39.2047C193.295 38.9815 193.442 38.6525 193.442 38.2177C193.442 37.7849 193.295 37.4579 193.003 37.2386C192.711 37.0153 192.275 36.9017 191.7 36.9017C191.132 36.9017 190.703 37.0114 190.411 37.2307C190.119 37.4501 189.972 37.7791 189.972 38.2177Z" fill="white"/>
<path d="M199.795 39.9097V37.7242C199.795 37.4481 199.688 37.2425 199.476 37.1054C199.263 36.9703 198.931 36.9017 198.479 36.9017C197.874 36.9017 197.432 36.9997 197.15 37.1916C196.874 37.3796 196.738 37.6929 196.738 38.1316V39.9097H195.86V36.5257H196.578L196.711 36.9879H196.751C196.927 36.8214 197.176 36.6942 197.495 36.6041C197.821 36.5101 198.18 36.4631 198.572 36.4631C199.263 36.4631 199.781 36.5629 200.127 36.7607C200.479 36.9605 200.659 37.2738 200.659 37.7007V39.9097H199.795Z" fill="white"/>
<mask id="mask0_1_130" style="mask-type:luminance" maskUnits="userSpaceOnUse" x="33" y="0" width="18" height="45">
<path d="M33.1162 0H50.1295V44.9183H33.1162V0Z" fill="white"/>
</mask>
<g mask="url(#mask0_1_130)">
<path d="M42.8619 7.00493C40.3133 7.00493 38.2497 5.78098 38.2497 4.2711C38.2497 2.75927 40.3133 1.53531 42.8619 1.53531C45.4106 1.53531 47.4741 2.75927 47.4741 4.2711C47.4741 5.78098 45.4106 7.00493 42.8619 7.00493ZM42.8619 -0.00198364C38.8811 -0.00198364 35.6545 1.91131 35.6545 4.2711C35.6545 6.30581 38.0537 8.0076 41.2669 8.43648H41.2636V34.9151L33.1557 39.7111V43.6512C34.2057 44.0096 35.2724 44.3386 36.349 44.6343V40.4964L44.4569 35.7004V8.43648C44.4603 8.43648 44.4603 8.43648 44.4603 8.43648C47.6702 8.00564 50.0693 6.30385 50.0693 4.2711C50.0693 1.91131 46.8428 -0.00198364 42.8619 -0.00198364Z" fill="#00E7FF"/>
</g>
<path d="M26.6465 31.6721C24.0945 31.6721 22.031 30.4462 22.031 28.9363C22.031 27.4265 24.0945 26.2025 26.6465 26.2025C29.1918 26.2025 31.2587 27.4265 31.2587 28.9363C31.2587 30.4462 29.1918 31.6721 26.6465 31.6721ZM26.6465 24.6652C22.6656 24.6652 19.4391 26.5785 19.4391 28.9363C19.4391 30.9711 21.8349 32.6728 25.0482 33.1037V40.0264C26.045 40.6021 27.1117 41.1544 28.2448 41.6792V33.1017C31.4548 32.6709 33.8506 30.9711 33.8506 28.9363C33.8506 26.5785 30.624 24.6652 26.6465 24.6652Z" fill="#00E7FF"/>
<path d="M49.6477 15.9585C49.6477 14.4486 51.7112 13.2246 54.2599 13.2246C56.8086 13.2246 58.8721 14.4486 58.8721 15.9585C58.8721 17.4683 56.8086 18.6923 54.2599 18.6923C51.7112 18.6923 49.6477 17.4683 49.6477 15.9585ZM44.557 42.1962V46.2284C45.637 46.3518 46.7069 46.436 47.7503 46.4811V42.9815L55.8582 38.1856V20.1258C59.0715 19.693 61.4673 17.9932 61.4673 15.9585C61.4673 13.5987 58.2408 11.6873 54.2599 11.6873C50.2791 11.6873 47.0525 13.5987 47.0525 15.9585C47.0525 17.9932 49.4517 19.695 52.6649 20.1258V37.4003L44.557 42.1962Z" fill="#00E7FF"/>
<mask id="mask1_1_130" style="mask-type:luminance" maskUnits="userSpaceOnUse" x="0" y="16" width="76" height="41">
<path d="M0 16.8436H75.284V56.4H0V16.8436Z" fill="white"/>
</mask>
<g mask="url(#mask1_1_130)">
<path d="M71.3329 40.5884L75.2739 39.7581C74.4365 38.0426 73.1605 36.2958 71.4791 34.5685L66.2389 33.6226C64.0125 31.6016 61.1615 29.6296 57.7721 27.8123V30.3307C64.6406 34.9876 66.9699 40.4709 62.8196 44.1311C57.3135 48.9897 42.4867 48.8017 29.7068 43.712C16.9235 38.6203 11.0286 30.5559 16.5347 25.6992C20.592 22.1174 29.7167 21.2793 39.3532 23.126V21.1441C36.758 20.5704 34.1761 20.1395 31.654 19.8497L28.1948 17.3313C24.8653 17.063 21.6553 17.0219 18.6547 17.2118L18.8508 19.6871C15.272 20.071 12.1086 20.8543 9.57985 22.045L4.34957 20.8524C3.48229 21.3556 2.69476 21.9118 2.00692 22.5189C1.31907 23.126 0.747534 23.7664 0.288971 24.4341L4.12694 26.8527C3.22643 28.6896 3.19652 30.7243 3.95082 32.8315L0.00984573 33.6618C0.847221 35.3773 2.12654 37.1241 3.80462 38.8514L9.04486 39.7973C11.3908 41.926 14.4213 43.9979 18.0533 45.8936L17.711 48.2592C19.1665 48.9505 20.6917 49.6164 22.29 50.2528C23.8883 50.8893 25.5066 51.4748 27.1381 52.0134L30.7036 50.9304C35.0367 52.2072 39.4196 53.0885 43.6298 53.5702L47.0889 56.0887C50.4218 56.3569 53.6284 56.3981 56.629 56.2081L56.433 53.7328C60.0118 53.3489 63.1752 52.5656 65.7072 51.3749L70.9342 52.5695C71.8048 52.0643 72.589 51.5081 73.2768 50.901C73.9647 50.2939 74.5362 49.6536 74.9981 48.9858L71.1568 46.5672C72.0573 44.7303 72.0872 42.6956 71.3329 40.5884Z" fill="#00E7FF"/>
</g>
</svg>
