<svg width="220" height="75" viewBox="0 0 220 75" fill="none" xmlns="http://www.w3.org/2000/svg">
<path d="M98.6973 21.9231V27.3644H92.1401V21.9231H87.7511V35.5717H92.1401V30.0915H98.6973V35.5717H103.381V21.9231H98.6973Z" fill="#F5F5F5"/>
<path d="M111.283 29.47L117.576 35.5717H123.491L115.559 28.7474L123.196 21.9231H117.576L111.283 28.0248V21.9231H106.894V35.5717H111.283V29.47Z" fill="white"/>
<path d="M135.783 30.3531H130.748L133.267 25.4971L135.783 30.3531ZM143.22 35.5717L135.141 21.9231H131.424L123.345 35.5717H128.055L129.49 32.8213H137.071L138.506 35.5717H143.22Z" fill="white"/>
<path d="M149.51 35.5717V21.9231H145.121V35.5717H149.51Z" fill="white"/>
<path d="M90.6629 52.221L89.5902 50.3252H86.1001L85.0274 52.221H84L87.4448 46.2332H88.2908L91.7205 52.221H90.6629ZM89.2729 49.6933L88.2606 47.8493C88.1284 47.6162 87.9924 47.3287 87.8527 46.9895C87.762 47.2536 87.6336 47.5385 87.475 47.8493L86.4476 49.6933H89.2729Z" fill="white"/>
<path d="M95.7878 52.3039C95.3647 52.3039 94.9757 52.2521 94.6244 52.1485C94.2694 52.0397 93.9785 51.8688 93.7481 51.6409H93.6726C93.7217 51.9051 93.7481 52.1537 93.7481 52.3868V54.2308H92.7509V47.7457H93.5668L93.7028 48.3569H93.7481C93.9974 48.1161 94.292 47.94 94.6244 47.8286C94.9643 47.7198 95.3534 47.6628 95.7878 47.6628C96.6527 47.6628 97.3213 47.8674 97.7972 48.2741C98.2693 48.6833 98.5073 49.253 98.5073 49.9834C98.5073 50.7163 98.2656 51.2861 97.7821 51.6927C97.3062 52.1019 96.6414 52.3039 95.7878 52.3039ZM95.6518 48.243C94.987 48.243 94.5035 48.3725 94.2014 48.6263C93.9068 48.8749 93.7557 49.2763 93.7481 49.828V49.9834C93.7481 50.6127 93.8992 51.0608 94.2014 51.3301C94.5035 51.5995 94.9908 51.7341 95.6669 51.7341C96.2297 51.7341 96.6716 51.5787 96.9964 51.268C97.3175 50.952 97.4799 50.5195 97.4799 49.973C97.4799 49.4136 97.3175 48.9863 96.9964 48.6884C96.6716 48.3932 96.2259 48.243 95.6518 48.243Z" fill="white"/>
<path d="M103.252 52.3039C102.829 52.3039 102.44 52.2521 102.089 52.1485C101.734 52.0397 101.443 51.8688 101.213 51.6409H101.137C101.186 51.9051 101.213 52.1537 101.213 52.3868V54.2308H100.216V47.7457H101.031L101.167 48.3569H101.213C101.462 48.1161 101.757 47.94 102.089 47.8286C102.429 47.7198 102.818 47.6628 103.252 47.6628C104.117 47.6628 104.786 47.8674 105.262 48.2741C105.734 48.6833 105.972 49.253 105.972 49.9834C105.972 50.7163 105.73 51.2861 105.247 51.6927C104.771 52.1019 104.106 52.3039 103.252 52.3039ZM103.116 48.243C102.452 48.243 101.968 48.3725 101.666 48.6263C101.371 48.8749 101.22 49.2763 101.213 49.828V49.9834C101.213 50.6127 101.364 51.0608 101.666 51.3301C101.968 51.5995 102.455 51.7341 103.132 51.7341C103.694 51.7341 104.136 51.5787 104.461 51.268C104.782 50.952 104.945 50.5195 104.945 49.973C104.945 49.4136 104.782 48.9863 104.461 48.6884C104.136 48.3932 103.691 48.243 103.116 48.243Z" fill="white"/>
<path d="M108.677 52.221H107.68V45.8706H108.677V52.221Z" fill="white"/>
<path d="M111.758 52.221H110.761V47.7457H111.758V52.221ZM110.686 46.5337C110.686 46.3834 110.739 46.2721 110.852 46.2022C110.961 46.127 111.097 46.0882 111.26 46.0882C111.418 46.0882 111.554 46.127 111.668 46.2022C111.789 46.2721 111.849 46.3834 111.849 46.5337C111.849 46.6865 111.789 46.8004 111.668 46.8755C111.554 46.9532 111.418 46.9895 111.26 46.9895C111.097 46.9895 110.961 46.9532 110.852 46.8755C110.739 46.8004 110.686 46.6865 110.686 46.5337Z" fill="white"/>
<path d="M116.456 52.3039C115.508 52.3039 114.771 52.1045 114.25 51.7031C113.736 51.3042 113.48 50.7396 113.48 50.0145C113.48 49.2634 113.74 48.6833 114.265 48.2741C114.798 47.8674 115.549 47.6628 116.516 47.6628C116.826 47.6628 117.14 47.6887 117.453 47.7354C117.774 47.7846 118.02 47.839 118.193 47.9011L117.891 48.4709C117.68 48.4165 117.442 48.3673 117.181 48.3259C116.917 48.2844 116.69 48.2637 116.501 48.2637C115.172 48.2637 114.507 48.8438 114.507 50.0041C114.507 50.5583 114.666 50.9831 114.99 51.2783C115.311 51.5684 115.791 51.7134 116.426 51.7134C116.97 51.7134 117.529 51.6305 118.103 51.4648V52.0656C117.668 52.2236 117.121 52.3039 116.456 52.3039Z" fill="white"/>
<path d="M123.66 52.221L123.464 51.5891H123.419C123.086 51.8662 122.758 52.0553 122.436 52.1589C122.112 52.2547 121.711 52.3039 121.228 52.3039C120.582 52.3039 120.072 52.19 119.702 51.9621C119.339 51.7341 119.158 51.4104 119.158 50.9883C119.158 50.0844 120.208 49.6079 122.316 49.5586L123.434 49.5379V49.2582C123.434 48.906 123.32 48.647 123.101 48.4813C122.878 48.3155 122.527 48.2326 122.044 48.2326C121.5 48.2326 120.884 48.3466 120.2 48.5745L119.898 48.0565C120.208 47.94 120.555 47.8467 120.941 47.7768C121.322 47.7095 121.711 47.6732 122.104 47.6732C122.878 47.6732 123.452 47.7949 123.826 48.0358C124.197 48.2715 124.385 48.647 124.385 49.165V52.221H123.66ZM121.424 51.7445C122.036 51.7445 122.52 51.6306 122.875 51.4026C123.226 51.1696 123.403 50.8432 123.403 50.4288V50.0248L122.421 50.0455C121.636 50.0663 121.065 50.1543 120.714 50.3045C120.37 50.4496 120.2 50.6775 120.2 50.9883C120.2 51.2369 120.306 51.4285 120.518 51.558C120.737 51.6824 121.039 51.7445 121.424 51.7445Z" fill="white"/>
<path d="M128.531 51.7445C128.701 51.7445 128.867 51.7393 129.03 51.7238C129.188 51.7031 129.321 51.6823 129.423 51.6616V52.1796C129.309 52.2159 129.151 52.2418 128.939 52.2625C128.735 52.2884 128.55 52.3039 128.38 52.3039C127.119 52.3039 126.492 51.8481 126.492 50.9365V48.2741H125.555V47.9426L126.492 47.6629L126.915 46.7098H127.474V47.7457H129.377V48.2741H127.474V50.9054C127.474 51.1747 127.568 51.3819 127.761 51.527C127.95 51.672 128.206 51.7445 128.531 51.7445Z" fill="white"/>
<path d="M131.714 52.221H130.716V47.7457H131.714V52.221ZM130.641 46.5337C130.641 46.3834 130.694 46.2721 130.807 46.2022C130.917 46.127 131.053 46.0882 131.215 46.0882C131.374 46.0882 131.51 46.127 131.623 46.2022C131.744 46.2721 131.804 46.3834 131.804 46.5337C131.804 46.6865 131.744 46.8004 131.623 46.8755C131.51 46.9532 131.374 46.9895 131.215 46.9895C131.053 46.9895 130.917 46.9532 130.807 46.8755C130.694 46.8004 130.641 46.6865 130.641 46.5337Z" fill="white"/>
<path d="M139.433 49.9834C139.433 50.7085 139.165 51.2783 138.632 51.6927C138.096 52.1019 137.355 52.3039 136.411 52.3039C135.826 52.3039 135.308 52.2107 134.855 52.0242C134.402 51.8377 134.047 51.5684 133.797 51.2162C133.556 50.8639 133.435 50.4547 133.435 49.9834C133.435 49.253 133.699 48.6833 134.236 48.2741C134.768 47.8674 135.508 47.6628 136.456 47.6628C137.363 47.6628 138.081 47.8752 138.617 48.2948C139.161 48.7092 139.433 49.2737 139.433 49.9834ZM134.462 49.9834C134.462 50.5506 134.628 50.9857 134.961 51.2887C135.293 51.5865 135.784 51.7341 136.441 51.7341C137.083 51.7341 137.574 51.5865 137.907 51.2887C138.239 50.9934 138.405 50.5583 138.405 49.9834C138.405 49.411 138.239 48.9785 137.907 48.6884C137.574 48.3932 137.08 48.243 136.426 48.243C135.78 48.243 135.293 48.388 134.961 48.6781C134.628 48.9681 134.462 49.4032 134.462 49.9834Z" fill="white"/>
<path d="M145.627 52.221V49.3307C145.627 48.9656 145.506 48.6936 145.264 48.5123C145.023 48.3336 144.645 48.243 144.131 48.243C143.444 48.243 142.941 48.3725 142.62 48.6263C142.307 48.8749 142.152 49.2893 142.152 49.8694V52.221H141.155V47.7457H141.971L142.122 48.3569H142.167C142.367 48.1368 142.651 47.9684 143.013 47.8493C143.383 47.725 143.791 47.6628 144.237 47.6628C145.023 47.6628 145.612 47.7949 146.005 48.0565C146.405 48.3207 146.609 48.7351 146.609 49.2996V52.221H145.627Z" fill="white"/>
<path d="M157.416 52.221L156.343 50.3252H152.853L151.781 52.221H150.753L154.198 46.2332H155.044L158.474 52.221H157.416ZM156.026 49.6933L155.014 47.8493C154.882 47.6162 154.746 47.3287 154.606 46.9895C154.515 47.2536 154.387 47.5385 154.228 47.8493L153.201 49.6933H156.026Z" fill="white"/>
<path d="M163.719 50.9986C163.719 51.413 163.493 51.7341 163.04 51.962C162.586 52.19 161.952 52.3039 161.136 52.3039C160.267 52.3039 159.595 52.2107 159.111 52.0242V51.3923C159.421 51.5036 159.753 51.5891 160.108 51.6513C160.471 51.7134 160.822 51.7445 161.166 51.7445C161.68 51.7445 162.073 51.6901 162.345 51.5787C162.624 51.4622 162.768 51.2887 162.768 51.0608C162.768 50.8821 162.654 50.7344 162.435 50.6153C162.212 50.491 161.786 50.3434 161.151 50.1698C160.535 50.0196 160.101 49.885 159.852 49.7658C159.599 49.6493 159.406 49.5172 159.277 49.3722C159.157 49.2271 159.096 49.051 159.096 48.8438C159.096 48.4787 159.311 48.1912 159.746 47.984C160.176 47.7716 160.773 47.6628 161.529 47.6628C162.224 47.6628 162.907 47.7638 163.583 47.9633L163.236 48.5123C162.579 48.3259 161.986 48.2326 161.453 48.2326C160.977 48.2326 160.622 48.2844 160.38 48.388C160.146 48.4864 160.033 48.6237 160.033 48.8024C160.033 48.9215 160.078 49.0251 160.169 49.1132C160.26 49.1961 160.399 49.2763 160.592 49.3514C160.792 49.4291 161.174 49.5379 161.74 49.6829C162.515 49.8694 163.04 50.0637 163.311 50.2631C163.583 50.4573 163.719 50.7034 163.719 50.9986Z" fill="white"/>
<path d="M169.53 50.9986C169.53 51.413 169.304 51.7341 168.851 51.962C168.397 52.19 167.763 52.3039 166.947 52.3039C166.078 52.3039 165.406 52.2107 164.922 52.0242V51.3923C165.232 51.5036 165.564 51.5891 165.92 51.6513C166.282 51.7134 166.633 51.7445 166.977 51.7445C167.491 51.7445 167.884 51.6901 168.156 51.5787C168.435 51.4622 168.579 51.2887 168.579 51.0608C168.579 50.8821 168.465 50.7344 168.246 50.6153C168.023 50.491 167.597 50.3434 166.962 50.1698C166.346 50.0196 165.912 49.885 165.663 49.7658C165.41 49.6493 165.217 49.5172 165.089 49.3722C164.968 49.2271 164.907 49.051 164.907 48.8438C164.907 48.4787 165.123 48.1912 165.557 47.984C165.988 47.7716 166.584 47.6628 167.34 47.6628C168.035 47.6628 168.718 47.7638 169.395 47.9633L169.047 48.5123C168.39 48.3259 167.797 48.2326 167.264 48.2326C166.788 48.2326 166.433 48.2844 166.191 48.388C165.957 48.4864 165.844 48.6237 165.844 48.8024C165.844 48.9215 165.889 49.0251 165.98 49.1132C166.071 49.1961 166.21 49.2763 166.403 49.3514C166.603 49.4291 166.985 49.5379 167.551 49.6829C168.326 49.8694 168.851 50.0637 169.123 50.2631C169.395 50.4573 169.53 50.7034 169.53 50.9986Z" fill="white"/>
<path d="M176.762 49.9834C176.762 50.7085 176.494 51.2783 175.961 51.6927C175.425 52.1019 174.684 52.3039 173.74 52.3039C173.155 52.3039 172.637 52.2107 172.184 52.0242C171.731 51.8377 171.376 51.5684 171.126 51.2162C170.885 50.8639 170.764 50.4547 170.764 49.9834C170.764 49.253 171.028 48.6833 171.564 48.2741C172.097 47.8674 172.837 47.6628 173.785 47.6628C174.692 47.6628 175.41 47.8752 175.946 48.2948C176.49 48.7092 176.762 49.2737 176.762 49.9834ZM171.791 49.9834C171.791 50.5506 171.957 50.9857 172.29 51.2887C172.622 51.5865 173.113 51.7341 173.77 51.7341C174.412 51.7341 174.903 51.5865 175.236 51.2887C175.568 50.9934 175.734 50.5583 175.734 49.9834C175.734 49.411 175.568 48.9785 175.236 48.6884C174.903 48.3932 174.409 48.243 173.755 48.243C173.109 48.243 172.622 48.388 172.29 48.6781C171.957 48.9681 171.791 49.4032 171.791 49.9834Z" fill="white"/>
<path d="M181.098 52.3039C180.15 52.3039 179.413 52.1045 178.892 51.7031C178.378 51.3042 178.121 50.7396 178.121 50.0145C178.121 49.2634 178.382 48.6833 178.907 48.2741C179.439 47.8674 180.191 47.6628 181.158 47.6628C181.468 47.6628 181.781 47.6887 182.095 47.7354C182.416 47.7846 182.661 47.839 182.835 47.9011L182.533 48.4709C182.321 48.4165 182.083 48.3673 181.823 48.3259C181.558 48.2844 181.332 48.2637 181.143 48.2637C179.813 48.2637 179.149 48.8438 179.149 50.0041C179.149 50.5583 179.307 50.9831 179.632 51.2783C179.953 51.5684 180.433 51.7134 181.067 51.7134C181.611 51.7134 182.17 51.6305 182.744 51.4648V52.0656C182.31 52.2236 181.762 52.3039 181.098 52.3039Z" fill="white"/>
<path d="M185.28 52.221H184.283V47.7457H185.28V52.221ZM184.207 46.5337C184.207 46.3834 184.26 46.2721 184.374 46.2022C184.483 46.127 184.619 46.0882 184.782 46.0882C184.94 46.0882 185.076 46.127 185.19 46.2022C185.31 46.2721 185.371 46.3834 185.371 46.5337C185.371 46.6865 185.31 46.8004 185.19 46.8755C185.076 46.9532 184.94 46.9895 184.782 46.9895C184.619 46.9895 184.483 46.9532 184.374 46.8755C184.26 46.8004 184.207 46.6865 184.207 46.5337Z" fill="white"/>
<path d="M191.383 52.221L191.187 51.5891H191.141C190.809 51.8662 190.48 52.0553 190.159 52.1589C189.834 52.2547 189.434 52.3039 188.95 52.3039C188.305 52.3039 187.795 52.19 187.424 51.9621C187.062 51.7341 186.881 51.4104 186.881 50.9883C186.881 50.0844 187.931 49.6079 190.038 49.5586L191.156 49.5379V49.2582C191.156 48.906 191.043 48.647 190.824 48.4813C190.601 48.3155 190.25 48.2326 189.766 48.2326C189.222 48.2326 188.607 48.3466 187.923 48.5745L187.621 48.0565C187.931 47.94 188.278 47.8467 188.663 47.7768C189.045 47.7095 189.434 47.6732 189.827 47.6732C190.601 47.6732 191.175 47.7949 191.549 48.0358C191.919 48.2715 192.108 48.647 192.108 49.165V52.221H191.383ZM189.147 51.7445C189.759 51.7445 190.242 51.6306 190.597 51.4026C190.949 51.1696 191.126 50.8432 191.126 50.4288V50.0248L190.144 50.0455C189.358 50.0663 188.788 50.1543 188.437 50.3045C188.093 50.4496 187.923 50.6775 187.923 50.9883C187.923 51.2369 188.029 51.4285 188.24 51.558C188.459 51.6824 188.762 51.7445 189.147 51.7445Z" fill="white"/>
<path d="M196.254 51.7445C196.424 51.7445 196.59 51.7393 196.752 51.7238C196.911 51.7031 197.043 51.6823 197.145 51.6616V52.1796C197.032 52.2159 196.873 52.2418 196.662 52.2625C196.458 52.2884 196.273 52.3039 196.103 52.3039C194.841 52.3039 194.214 51.8481 194.214 50.9365V48.2741H193.277V47.9426L194.214 47.6629L194.637 46.7098H195.196V47.7457H197.1V48.2741H195.196V50.9054C195.196 51.1747 195.291 51.3819 195.483 51.527C195.672 51.672 195.929 51.7445 196.254 51.7445Z" fill="white"/>
<path d="M199.436 52.221H198.439V47.7457H199.436V52.221ZM198.363 46.5337C198.363 46.3834 198.416 46.2721 198.53 46.2022C198.639 46.127 198.775 46.0882 198.938 46.0882C199.096 46.0882 199.232 46.127 199.346 46.2022C199.466 46.2721 199.527 46.3834 199.527 46.5337C199.527 46.6865 199.466 46.8004 199.346 46.8755C199.232 46.9532 199.096 46.9895 198.938 46.9895C198.775 46.9895 198.639 46.9532 198.53 46.8755C198.416 46.8004 198.363 46.6865 198.363 46.5337Z" fill="white"/>
<path d="M207.156 49.9834C207.156 50.7085 206.887 51.2783 206.355 51.6927C205.818 52.1019 205.078 52.3039 204.134 52.3039C203.548 52.3039 203.031 52.2107 202.578 52.0242C202.124 51.8377 201.769 51.5684 201.52 51.2162C201.278 50.8639 201.157 50.4547 201.157 49.9834C201.157 49.253 201.422 48.6833 201.958 48.2741C202.491 47.8674 203.231 47.6628 204.179 47.6628C205.086 47.6628 205.803 47.8752 206.34 48.2948C206.884 48.7092 207.156 49.2737 207.156 49.9834ZM202.185 49.9834C202.185 50.5506 202.351 50.9857 202.683 51.2887C203.016 51.5865 203.507 51.7341 204.164 51.7341C204.806 51.7341 205.297 51.5865 205.63 51.2887C205.962 50.9934 206.128 50.5583 206.128 49.9834C206.128 49.411 205.962 48.9785 205.63 48.6884C205.297 48.3932 204.802 48.243 204.149 48.243C203.503 48.243 203.016 48.388 202.683 48.6781C202.351 48.9681 202.185 49.4032 202.185 49.9834Z" fill="white"/>
<path d="M213.35 52.221V49.3307C213.35 48.9656 213.229 48.6936 212.987 48.5123C212.745 48.3336 212.368 48.243 211.854 48.243C211.167 48.243 210.664 48.3725 210.343 48.6263C210.03 48.8749 209.875 49.2893 209.875 49.8694V52.221H208.878V47.7457H209.693L209.845 48.3569H209.89C210.09 48.1368 210.373 47.9684 210.736 47.8493C211.106 47.725 211.514 47.6628 211.96 47.6628C212.745 47.6628 213.335 47.7949 213.727 48.0565C214.128 48.3207 214.332 48.7351 214.332 49.2996V52.221H213.35Z" fill="white"/>
<mask id="mask0_1_130" style="mask-type:luminance" maskUnits="userSpaceOnUse" x="34" y="0" width="19" height="52">
<path d="M34.5288 0H52.2678V51.8288H34.5288V0Z" fill="white"/>
</mask>
<g mask="url(#mask0_1_130)">
<path d="M44.6902 8.08265C42.0328 8.08265 39.8812 6.67039 39.8812 4.92822C39.8812 3.1838 42.0328 1.77154 44.6902 1.77154C47.3476 1.77154 49.4991 3.1838 49.4991 4.92822C49.4991 6.67039 47.3476 8.08265 44.6902 8.08265ZM44.6902 -0.0022583C40.5395 -0.0022583 37.1753 2.20539 37.1753 4.92822C37.1753 7.27596 39.6768 9.23957 43.0271 9.73442H43.0237V40.2867L34.5699 45.8205V50.3668C35.6647 50.7803 36.7769 51.16 37.8994 51.5012V46.7266L46.3532 41.1928V9.73442C46.3567 9.73442 46.3567 9.73442 46.3567 9.73442C49.7035 9.23731 52.205 7.2737 52.205 4.92822C52.205 2.20539 48.8408 -0.0022583 44.6902 -0.0022583Z" fill="#00E7FF"/>
</g>
<path d="M27.7831 36.5448C25.1222 36.5448 22.9707 35.1303 22.9707 33.3881C22.9707 31.6459 25.1222 30.2337 27.7831 30.2337C30.437 30.2337 32.592 31.6459 32.592 33.3881C32.592 35.1303 30.437 36.5448 27.7831 36.5448ZM27.7831 28.4599C23.6324 28.4599 20.2682 30.6675 20.2682 33.3881C20.2682 35.7358 22.7663 37.6994 26.1166 38.1966V46.1843C27.156 46.8486 28.2681 47.4858 29.4496 48.0914V38.1943C32.7964 37.6972 35.2944 35.7358 35.2944 33.3881C35.2944 30.6675 31.9303 28.4599 27.7831 28.4599Z" fill="#00E7FF"/>
<path d="M51.7654 18.4136C51.7654 16.6715 53.9169 15.2592 56.5743 15.2592C59.2317 15.2592 61.3833 16.6715 61.3833 18.4136C61.3833 20.1558 59.2317 21.5681 56.5743 21.5681C53.9169 21.5681 51.7654 20.1558 51.7654 18.4136ZM46.4575 48.688V53.3405C47.5836 53.4829 48.6992 53.58 49.7871 53.632V49.5941L58.2408 44.0603V23.2221C61.5911 22.7227 64.0892 20.7614 64.0892 18.4136C64.0892 15.6908 60.725 13.4854 56.5743 13.4854C52.4237 13.4854 49.0595 15.6908 49.0595 18.4136C49.0595 20.7614 51.561 22.725 54.9113 23.2221V43.1542L46.4575 48.688Z" fill="#00E7FF"/>
<mask id="mask1_1_130" style="mask-type:luminance" maskUnits="userSpaceOnUse" x="0" y="19" width="79" height="47">
<path d="M0 19.435H78.4952V65.0769H0V19.435Z" fill="white"/>
</mask>
<g mask="url(#mask1_1_130)">
<path d="M74.3756 46.8328L78.4846 45.8747C77.6115 43.8953 76.2811 41.8797 74.528 39.8868L69.0643 38.7954C66.7429 36.4634 63.7703 34.188 60.2363 32.0911V34.9969C67.3978 40.3703 69.8265 46.6972 65.4991 50.9205C59.7582 56.5266 44.2989 56.3096 30.9739 50.4369C17.6453 44.5619 11.4991 35.2568 17.24 29.653C21.4703 25.5201 30.9843 24.553 41.0318 26.6838V24.3971C38.3259 23.735 35.6338 23.2379 33.0042 22.9035L29.3974 19.9976C25.9259 19.6881 22.579 19.6406 19.4504 19.8598L19.6548 22.7159C15.9234 23.1588 12.6251 24.0627 9.98847 25.4365L4.5351 24.0604C3.63083 24.6411 2.80971 25.2829 2.09253 25.9833C1.37534 26.6838 0.779422 27.4227 0.3013 28.1932L4.30297 30.9839C3.36405 33.1034 3.33287 35.4511 4.11935 37.8825L0.0102692 38.8406C0.883362 40.82 2.21725 42.8356 3.9669 44.8285L9.43066 45.9199C11.8767 48.3761 15.0365 50.7668 18.8233 52.9541L18.4665 55.6837C19.984 56.4814 21.5743 57.2496 23.2408 57.984C24.9073 58.7184 26.5945 59.394 28.2957 60.0154L32.0133 58.7658C36.5312 60.2391 41.101 61.2559 45.4908 61.8118L49.0975 64.7177C52.5725 65.0272 55.9159 65.0747 59.0445 64.8555L58.8401 61.9994C62.5715 61.5565 65.8698 60.6526 68.5099 59.2788L73.9598 60.6571C74.8675 60.0742 75.6852 59.4324 76.4024 58.732C77.1196 58.0315 77.7155 57.2926 78.1971 56.522L74.1919 53.7314C75.1309 51.6119 75.162 49.2642 74.3756 46.8328Z" fill="#00E7FF"/>
</g>
</svg>
