<svg xmlns="http://www.w3.org/2000/svg" xmlns:xlink="http://www.w3.org/1999/xlink" width="500" zoomAndPan="magnify" viewBox="0 0 375 374.999991" height="500" preserveAspectRatio="xMidYMid meet" version="1.0"><defs><g/><clipPath id="bb2ad3597e"><path d="M 178 98 L 221 98 L 221 146 L 178 146 Z M 178 98 " clip-rule="nonzero"/></clipPath><clipPath id="6447ae62cc"><path d="M 143.707031 87.636719 L 256.457031 112.675781 L 231.089844 226.894531 L 118.339844 201.851562 Z M 143.707031 87.636719 " clip-rule="nonzero"/></clipPath><clipPath id="6d0a7c43e7"><path d="M 143.707031 87.636719 L 256.457031 112.675781 L 231.089844 226.894531 L 118.339844 201.851562 Z M 143.707031 87.636719 " clip-rule="nonzero"/></clipPath><clipPath id="8386115f55"><path d="M 143.707031 87.636719 L 256.457031 112.675781 L 231.089844 226.894531 L 118.339844 201.851562 Z M 143.707031 87.636719 " clip-rule="nonzero"/></clipPath><clipPath id="1ffa92f9e4"><path d="M 197 123 L 240 123 L 240 170 L 197 170 Z M 197 123 " clip-rule="nonzero"/></clipPath><clipPath id="aed550bd52"><path d="M 143.707031 87.636719 L 256.457031 112.675781 L 231.089844 226.894531 L 118.339844 201.851562 Z M 143.707031 87.636719 " clip-rule="nonzero"/></clipPath><clipPath id="cc3a439b84"><path d="M 143.707031 87.636719 L 256.457031 112.675781 L 231.089844 226.894531 L 118.339844 201.851562 Z M 143.707031 87.636719 " clip-rule="nonzero"/></clipPath><clipPath id="4d121d586b"><path d="M 143.707031 87.636719 L 256.457031 112.675781 L 231.089844 226.894531 L 118.339844 201.851562 Z M 143.707031 87.636719 " clip-rule="nonzero"/></clipPath><clipPath id="59680e7537"><path d="M 196 161 L 240 161 L 240 203 L 196 203 Z M 196 161 " clip-rule="nonzero"/></clipPath><clipPath id="c65098ee48"><path d="M 143.707031 87.636719 L 256.457031 112.675781 L 231.089844 226.894531 L 118.339844 201.851562 Z M 143.707031 87.636719 " clip-rule="nonzero"/></clipPath><clipPath id="f13f4ea142"><path d="M 143.707031 87.636719 L 256.457031 112.675781 L 231.089844 226.894531 L 118.339844 201.851562 Z M 143.707031 87.636719 " clip-rule="nonzero"/></clipPath><clipPath id="f193e676ba"><path d="M 143.707031 87.636719 L 256.457031 112.675781 L 231.089844 226.894531 L 118.339844 201.851562 Z M 143.707031 87.636719 " clip-rule="nonzero"/></clipPath><clipPath id="a978c8aecb"><path d="M 154 169 L 197 169 L 197 217 L 154 217 Z M 154 169 " clip-rule="nonzero"/></clipPath><clipPath id="b36470b336"><path d="M 143.707031 87.636719 L 256.457031 112.675781 L 231.089844 226.894531 L 118.339844 201.851562 Z M 143.707031 87.636719 " clip-rule="nonzero"/></clipPath><clipPath id="aad817c9ab"><path d="M 143.707031 87.636719 L 256.457031 112.675781 L 231.089844 226.894531 L 118.339844 201.851562 Z M 143.707031 87.636719 " clip-rule="nonzero"/></clipPath><clipPath id="57a4bf9cab"><path d="M 143.707031 87.636719 L 256.457031 112.675781 L 231.089844 226.894531 L 118.339844 201.851562 Z M 143.707031 87.636719 " clip-rule="nonzero"/></clipPath><clipPath id="3dd9ee8aa2"><path d="M 135 144 L 178 144 L 178 192 L 135 192 Z M 135 144 " clip-rule="nonzero"/></clipPath><clipPath id="86492cb259"><path d="M 143.707031 87.636719 L 256.457031 112.675781 L 231.089844 226.894531 L 118.339844 201.851562 Z M 143.707031 87.636719 " clip-rule="nonzero"/></clipPath><clipPath id="1b6215af13"><path d="M 143.707031 87.636719 L 256.457031 112.675781 L 231.089844 226.894531 L 118.339844 201.851562 Z M 143.707031 87.636719 " clip-rule="nonzero"/></clipPath><clipPath id="c245232f42"><path d="M 143.707031 87.636719 L 256.457031 112.675781 L 231.089844 226.894531 L 118.339844 201.851562 Z M 143.707031 87.636719 " clip-rule="nonzero"/></clipPath><clipPath id="49a25303be"><path d="M 135 111 L 179 111 L 179 154 L 135 154 Z M 135 111 " clip-rule="nonzero"/></clipPath><clipPath id="8df73f15c9"><path d="M 143.707031 87.636719 L 256.457031 112.675781 L 231.089844 226.894531 L 118.339844 201.851562 Z M 143.707031 87.636719 " clip-rule="nonzero"/></clipPath><clipPath id="1117ff4dd7"><path d="M 143.707031 87.636719 L 256.457031 112.675781 L 231.089844 226.894531 L 118.339844 201.851562 Z M 143.707031 87.636719 " clip-rule="nonzero"/></clipPath><clipPath id="4f537380df"><path d="M 143.707031 87.636719 L 256.457031 112.675781 L 231.089844 226.894531 L 118.339844 201.851562 Z M 143.707031 87.636719 " clip-rule="nonzero"/></clipPath><clipPath id="d0634aac4f"><path d="M 178 98 L 221 98 L 221 146 L 178 146 Z M 178 98 " clip-rule="nonzero"/></clipPath><clipPath id="e46e43f4e2"><path d="M 143.707031 87.636719 L 256.457031 112.675781 L 231.089844 226.894531 L 118.339844 201.851562 Z M 143.707031 87.636719 " clip-rule="nonzero"/></clipPath><clipPath id="4e2098215e"><path d="M 143.707031 87.636719 L 256.457031 112.675781 L 231.089844 226.894531 L 118.339844 201.851562 Z M 143.707031 87.636719 " clip-rule="nonzero"/></clipPath><clipPath id="4d4386d330"><path d="M 143.707031 87.636719 L 256.457031 112.675781 L 231.089844 226.894531 L 118.339844 201.851562 Z M 143.707031 87.636719 " clip-rule="nonzero"/></clipPath></defs><rect x="-37.5" width="450" fill="#ffffff" y="-37.499999" height="449.999989" fill-opacity="1"/><rect x="-37.5" width="450" fill="#ffffff" y="-37.499999" height="449.999989" fill-opacity="1"/><rect x="-37.5" width="450" fill="#ffffff" y="-37.499999" height="449.999989" fill-opacity="1"/><g clip-path="url(#bb2ad3597e)"><g clip-path="url(#6447ae62cc)"><g clip-path="url(#6d0a7c43e7)"><g clip-path="url(#8386115f55)"><path fill="#00adef" d="M 196.792969 107.253906 C 196.835938 108.164062 196.746094 109.046875 196.546875 109.886719 C 196.25 111.132812 196.808594 112.425781 197.910156 113.070312 L 210.277344 120.3125 C 211.203125 120.851562 212.347656 120.847656 213.257812 120.28125 C 214.046875 119.796875 214.992188 119.539062 216.003906 119.605469 C 218.253906 119.757812 220.089844 121.578125 220.277344 123.835938 C 220.496094 126.527344 218.414062 128.808594 215.761719 128.867188 C 214.84375 128.886719 213.980469 128.632812 213.25 128.183594 C 212.347656 127.625 211.222656 127.574219 210.304688 128.105469 L 194.671875 137.179688 C 193.710938 137.738281 193.152344 138.792969 193.222656 139.90625 C 193.234375 140.09375 193.234375 140.285156 193.226562 140.480469 C 193.105469 143.023438 191.101562 145.132812 188.578125 145.371094 C 185.429688 145.667969 182.773438 143.09375 182.96875 139.921875 C 183.125 137.347656 185.207031 135.257812 187.769531 135.09375 C 188.933594 135.019531 190.019531 135.335938 190.914062 135.925781 C 191.851562 136.542969 193.046875 136.605469 194.019531 136.042969 L 209.617188 126.988281 C 210.550781 126.449219 211.082031 125.429688 211.054688 124.347656 L 211.054688 124.332031 C 211.054688 124.246094 211.054688 124.167969 211.058594 124.085938 C 211.09375 123.019531 210.578125 122.007812 209.660156 121.46875 L 197.25 114.203125 C 196.132812 113.550781 194.730469 113.730469 193.777344 114.609375 C 192.03125 116.226562 189.667969 117.183594 187.074219 117.082031 C 182.496094 116.90625 178.675781 113.34375 178.179688 108.773438 C 177.5625 103.0625 182.085938 98.191406 187.742188 98.34375 C 192.585938 98.476562 196.566406 102.398438 196.792969 107.253906 " fill-opacity="1" fill-rule="nonzero"/></g></g></g></g><g clip-path="url(#1ffa92f9e4)"><g clip-path="url(#aed550bd52)"><g clip-path="url(#cc3a439b84)"><g clip-path="url(#4d121d586b)"><path fill="#f9a72b" d="M 235.207031 140.351562 C 234.441406 140.84375 233.636719 141.210938 232.808594 141.457031 C 231.585938 141.824219 230.75 142.960938 230.742188 144.242188 L 230.660156 158.625 C 230.65625 159.695312 231.230469 160.691406 232.171875 161.199219 C 232.984375 161.640625 233.679688 162.332031 234.125 163.246094 C 235.117188 165.277344 234.460938 167.789062 232.605469 169.082031 C 230.390625 170.621094 227.382812 169.957031 226.015625 167.679688 C 225.539062 166.890625 225.324219 166.011719 225.351562 165.152344 C 225.382812 164.089844 224.867188 163.085938 223.953125 162.554688 L 208.328125 153.515625 C 207.367188 152.957031 206.179688 153.003906 205.253906 153.621094 C 205.097656 153.726562 204.929688 153.824219 204.761719 153.914062 C 202.503906 155.082031 199.683594 154.398438 198.222656 152.324219 C 196.398438 149.738281 197.292969 146.140625 200.128906 144.714844 C 202.425781 143.5625 205.269531 144.324219 206.6875 146.46875 C 207.332031 147.441406 207.601562 148.546875 207.539062 149.621094 C 207.472656 150.746094 208.011719 151.816406 208.984375 152.375 L 224.570312 161.394531 C 225.503906 161.9375 226.644531 161.886719 227.566406 161.324219 L 227.582031 161.3125 C 227.652344 161.269531 227.722656 161.230469 227.792969 161.191406 C 228.730469 160.6875 229.347656 159.734375 229.351562 158.667969 L 229.433594 144.234375 C 229.441406 142.933594 228.589844 141.804688 227.355469 141.417969 C 225.089844 140.710938 223.085938 139.136719 221.878906 136.832031 C 219.75 132.761719 220.917969 127.65625 224.617188 124.933594 C 229.234375 121.53125 235.691406 123.023438 238.382812 128.015625 C 240.683594 132.292969 239.28125 137.71875 235.207031 140.351562 " fill-opacity="1" fill-rule="nonzero"/></g></g></g></g><g clip-path="url(#59680e7537)"><g clip-path="url(#c65098ee48)"><g clip-path="url(#f13f4ea142)"><g clip-path="url(#f193e676ba)"><path fill="#f9a72b" d="M 225.796875 190.339844 C 224.992188 189.921875 224.273438 189.40625 223.648438 188.8125 C 222.722656 187.933594 221.328125 187.777344 220.214844 188.410156 L 207.769531 195.554688 C 206.839844 196.085938 206.269531 197.085938 206.296875 198.160156 C 206.324219 199.085938 206.070312 200.035156 205.503906 200.882812 C 204.246094 202.765625 201.753906 203.453125 199.710938 202.488281 C 197.28125 201.339844 196.355469 198.386719 197.636719 196.058594 C 198.082031 195.246094 198.730469 194.621094 199.488281 194.210938 C 200.421875 193.707031 201.03125 192.757812 201.03125 191.691406 L 201.042969 173.578125 C 201.042969 172.464844 200.410156 171.453125 199.417969 170.957031 C 199.25 170.875 199.082031 170.78125 198.917969 170.675781 C 196.785156 169.304688 195.96875 166.507812 197.03125 164.195312 C 198.355469 161.3125 201.90625 160.289062 204.546875 162.039062 C 206.6875 163.457031 207.445312 166.3125 206.304688 168.621094 C 205.785156 169.667969 204.964844 170.457031 204.007812 170.9375 C 203.003906 171.445312 202.351562 172.453125 202.347656 173.578125 L 202.339844 191.648438 C 202.335938 192.730469 202.949219 193.699219 203.898438 194.21875 L 203.910156 194.226562 C 203.980469 194.265625 204.050781 194.308594 204.121094 194.347656 C 205.023438 194.910156 206.152344 194.96875 207.078125 194.4375 L 219.570312 187.273438 C 220.695312 186.625 221.246094 185.320312 220.964844 184.050781 C 220.445312 181.730469 220.804688 179.199219 222.191406 176.992188 C 224.640625 173.101562 229.628906 171.554688 233.820312 173.40625 C 239.058594 175.710938 240.992188 182.074219 238.023438 186.914062 C 235.480469 191.0625 230.101562 192.5625 225.796875 190.339844 " fill-opacity="1" fill-rule="nonzero"/></g></g></g></g><g clip-path="url(#a978c8aecb)"><g clip-path="url(#b36470b336)"><g clip-path="url(#aad817c9ab)"><g clip-path="url(#57a4bf9cab)"><path fill="#80cc28" d="M 177.976562 207.234375 C 177.933594 206.324219 178.023438 205.441406 178.222656 204.597656 C 178.523438 203.351562 177.960938 202.058594 176.859375 201.414062 L 164.492188 194.171875 C 163.570312 193.632812 162.421875 193.640625 161.511719 194.203125 C 160.722656 194.691406 159.777344 194.949219 158.765625 194.882812 C 156.515625 194.730469 154.679688 192.910156 154.492188 190.648438 C 154.273438 187.960938 156.359375 185.675781 159.007812 185.621094 C 159.929688 185.601562 160.789062 185.851562 161.519531 186.304688 C 162.421875 186.859375 163.546875 186.914062 164.464844 186.382812 L 180.097656 177.308594 C 181.058594 176.75 181.617188 175.691406 181.546875 174.582031 C 181.539062 174.394531 181.535156 174.199219 181.542969 174.007812 C 181.664062 171.464844 183.667969 169.351562 186.195312 169.113281 C 189.34375 168.820312 191.996094 171.394531 191.800781 174.566406 C 191.644531 177.136719 189.5625 179.230469 187 179.394531 C 185.839844 179.46875 184.75 179.152344 183.855469 178.5625 C 182.917969 177.945312 181.722656 177.878906 180.753906 178.445312 L 165.152344 187.496094 C 164.21875 188.039062 163.691406 189.058594 163.714844 190.140625 L 163.714844 190.15625 C 163.714844 190.238281 163.714844 190.320312 163.714844 190.402344 C 163.679688 191.46875 164.191406 192.476562 165.109375 193.015625 L 177.523438 200.28125 C 178.636719 200.9375 180.039062 200.757812 180.992188 199.875 C 182.738281 198.261719 185.101562 197.304688 187.695312 197.402344 C 192.277344 197.582031 196.09375 201.140625 196.589844 205.714844 C 197.207031 211.421875 192.683594 216.296875 187.027344 216.140625 C 182.183594 216.011719 178.203125 212.089844 177.976562 207.234375 " fill-opacity="1" fill-rule="nonzero"/></g></g></g></g><g clip-path="url(#3dd9ee8aa2)"><g clip-path="url(#86492cb259)"><g clip-path="url(#1b6215af13)"><g clip-path="url(#c245232f42)"><path fill="#80cc28" d="M 139.566406 174.136719 C 140.328125 173.644531 141.132812 173.277344 141.960938 173.03125 C 143.183594 172.664062 144.019531 171.527344 144.027344 170.246094 L 144.109375 155.863281 C 144.117188 154.789062 143.539062 153.796875 142.597656 153.289062 C 141.785156 152.847656 141.089844 152.15625 140.644531 151.242188 C 139.652344 149.207031 140.308594 146.699219 142.164062 145.40625 C 144.378906 143.863281 147.386719 144.53125 148.753906 146.804688 C 149.230469 147.597656 149.445312 148.472656 149.417969 149.335938 C 149.386719 150.398438 149.902344 151.402344 150.820312 151.933594 L 166.441406 160.972656 C 167.402344 161.527344 168.59375 161.484375 169.515625 160.867188 C 169.671875 160.761719 169.839844 160.664062 170.011719 160.574219 C 172.265625 159.402344 175.085938 160.085938 176.546875 162.160156 C 178.371094 164.75 177.476562 168.347656 174.640625 169.769531 C 172.34375 170.925781 169.5 170.160156 168.082031 168.015625 C 167.4375 167.042969 167.167969 165.9375 167.230469 164.867188 C 167.296875 163.742188 166.757812 162.671875 165.785156 162.109375 L 150.203125 153.089844 C 149.265625 152.550781 148.125 152.601562 147.203125 153.164062 L 147.1875 153.175781 C 147.117188 153.214844 147.046875 153.257812 146.976562 153.292969 C 146.039062 153.800781 145.421875 154.75 145.417969 155.820312 L 145.335938 170.253906 C 145.328125 171.550781 146.179688 172.679688 147.414062 173.070312 C 149.679688 173.777344 151.683594 175.347656 152.890625 177.65625 C 155.019531 181.722656 153.851562 186.832031 150.152344 189.554688 C 145.535156 192.953125 139.078125 191.464844 136.386719 186.46875 C 134.085938 182.195312 135.488281 176.769531 139.566406 174.136719 " fill-opacity="1" fill-rule="nonzero"/></g></g></g></g><g clip-path="url(#49a25303be)"><g clip-path="url(#8df73f15c9)"><g clip-path="url(#1117ff4dd7)"><g clip-path="url(#4f537380df)"><path fill="#00adef" d="M 148.972656 124.144531 C 149.777344 124.5625 150.496094 125.078125 151.121094 125.671875 C 152.046875 126.554688 153.445312 126.710938 154.554688 126.074219 L 167.003906 118.933594 C 167.933594 118.398438 168.5 117.398438 168.472656 116.328125 C 168.445312 115.398438 168.699219 114.449219 169.265625 113.605469 C 170.523438 111.722656 173.015625 111.035156 175.058594 112 C 177.488281 113.148438 178.414062 116.097656 177.132812 118.429688 C 176.6875 119.242188 176.039062 119.863281 175.28125 120.273438 C 174.347656 120.777344 173.738281 121.730469 173.738281 122.792969 L 173.726562 140.90625 C 173.726562 142.023438 174.359375 143.035156 175.351562 143.527344 C 175.519531 143.613281 175.6875 143.707031 175.851562 143.808594 C 177.984375 145.183594 178.800781 147.976562 177.738281 150.289062 C 176.417969 153.175781 172.867188 154.199219 170.222656 152.449219 C 168.082031 151.03125 167.324219 148.175781 168.464844 145.867188 C 168.984375 144.820312 169.804688 144.03125 170.761719 143.546875 C 171.765625 143.042969 172.417969 142.035156 172.421875 140.910156 L 172.429688 122.839844 C 172.433594 121.753906 171.820312 120.785156 170.871094 120.269531 L 170.859375 120.257812 C 170.789062 120.222656 170.71875 120.179688 170.648438 120.136719 C 169.746094 119.574219 168.617188 119.519531 167.691406 120.046875 L 155.199219 127.214844 C 154.074219 127.859375 153.523438 129.167969 153.808594 130.433594 C 154.324219 132.757812 153.964844 135.289062 152.578125 137.496094 C 150.128906 141.386719 145.140625 142.929688 140.949219 141.082031 C 135.710938 138.773438 133.777344 132.414062 136.746094 127.570312 C 139.289062 123.425781 144.667969 121.921875 148.972656 124.144531 " fill-opacity="1" fill-rule="nonzero"/></g></g></g></g><g clip-path="url(#d0634aac4f)"><g clip-path="url(#e46e43f4e2)"><g clip-path="url(#4e2098215e)"><g clip-path="url(#4d4386d330)"><path fill="#00adef" d="M 196.792969 107.253906 C 196.835938 108.164062 196.746094 109.046875 196.546875 109.886719 C 196.25 111.132812 196.808594 112.425781 197.910156 113.070312 L 210.277344 120.3125 C 211.203125 120.851562 212.347656 120.847656 213.257812 120.28125 C 214.046875 119.796875 214.992188 119.539062 216.003906 119.605469 C 218.253906 119.757812 220.089844 121.578125 220.277344 123.835938 C 220.496094 126.527344 218.414062 128.808594 215.761719 128.867188 C 214.84375 128.886719 213.980469 128.632812 213.25 128.183594 C 212.347656 127.625 211.222656 127.574219 210.304688 128.105469 L 194.671875 137.179688 C 193.710938 137.738281 193.152344 138.792969 193.222656 139.90625 C 193.234375 140.09375 193.234375 140.285156 193.226562 140.480469 C 193.105469 143.023438 191.101562 145.132812 188.578125 145.371094 C 185.429688 145.667969 182.773438 143.09375 182.96875 139.921875 C 183.125 137.347656 185.207031 135.257812 187.769531 135.09375 C 188.933594 135.019531 190.019531 135.335938 190.914062 135.925781 C 191.851562 136.542969 193.046875 136.605469 194.019531 136.042969 L 209.617188 126.988281 C 210.550781 126.449219 211.082031 125.429688 211.054688 124.347656 L 211.054688 124.332031 C 211.054688 124.246094 211.054688 124.167969 211.058594 124.085938 C 211.09375 123.019531 210.578125 122.007812 209.660156 121.46875 L 197.25 114.203125 C 196.132812 113.550781 194.730469 113.730469 193.777344 114.609375 C 192.03125 116.226562 189.667969 117.183594 187.074219 117.082031 C 182.496094 116.90625 178.675781 113.34375 178.179688 108.773438 C 177.5625 103.0625 182.085938 98.191406 187.742188 98.34375 C 192.585938 98.476562 196.566406 102.398438 196.792969 107.253906 " fill-opacity="1" fill-rule="nonzero"/></g></g></g></g><g fill="#f9a72b" fill-opacity="1"><g transform="translate(135.663181, 280.597803)"><g><path d="M 4.75 -1.859375 L 1.765625 -1.859375 L 1.109375 0 L 0.140625 0 L 2.859375 -7.109375 L 3.671875 -7.109375 L 6.390625 0 L 5.4375 0 Z M 2.0625 -2.625 L 4.46875 -2.625 L 3.265625 -5.953125 Z M 2.0625 -2.625 "/></g></g></g><g fill="#f9a72b" fill-opacity="1"><g transform="translate(146.18406, 280.597803)"><g><path d="M 2.921875 -3.171875 C 2.117188 -3.398438 1.53125 -3.679688 1.15625 -4.015625 C 0.789062 -4.359375 0.609375 -4.773438 0.609375 -5.265625 C 0.609375 -5.828125 0.832031 -6.289062 1.28125 -6.65625 C 1.726562 -7.019531 2.3125 -7.203125 3.03125 -7.203125 C 3.519531 -7.203125 3.953125 -7.109375 4.328125 -6.921875 C 4.710938 -6.734375 5.007812 -6.472656 5.21875 -6.140625 C 5.4375 -5.804688 5.546875 -5.441406 5.546875 -5.046875 L 4.59375 -5.046875 C 4.59375 -5.484375 4.457031 -5.820312 4.1875 -6.0625 C 3.914062 -6.3125 3.53125 -6.4375 3.03125 -6.4375 C 2.570312 -6.4375 2.210938 -6.332031 1.953125 -6.125 C 1.691406 -5.925781 1.5625 -5.644531 1.5625 -5.28125 C 1.5625 -4.988281 1.679688 -4.742188 1.921875 -4.546875 C 2.171875 -4.347656 2.59375 -4.164062 3.1875 -4 C 3.78125 -3.832031 4.242188 -3.648438 4.578125 -3.453125 C 4.910156 -3.253906 5.15625 -3.019531 5.3125 -2.75 C 5.476562 -2.476562 5.5625 -2.164062 5.5625 -1.8125 C 5.5625 -1.226562 5.332031 -0.765625 4.875 -0.421875 C 4.425781 -0.078125 3.828125 0.09375 3.078125 0.09375 C 2.585938 0.09375 2.128906 0 1.703125 -0.1875 C 1.285156 -0.375 0.960938 -0.628906 0.734375 -0.953125 C 0.503906 -1.273438 0.390625 -1.644531 0.390625 -2.0625 L 1.328125 -2.0625 C 1.328125 -1.632812 1.484375 -1.296875 1.796875 -1.046875 C 2.117188 -0.796875 2.546875 -0.671875 3.078125 -0.671875 C 3.578125 -0.671875 3.957031 -0.769531 4.21875 -0.96875 C 4.476562 -1.175781 4.609375 -1.453125 4.609375 -1.796875 C 4.609375 -2.140625 4.484375 -2.40625 4.234375 -2.59375 C 3.992188 -2.789062 3.554688 -2.984375 2.921875 -3.171875 Z M 2.921875 -3.171875 "/></g></g></g><g fill="#f9a72b" fill-opacity="1"><g transform="translate(156.114354, 280.597803)"><g><path d="M 2.921875 -3.171875 C 2.117188 -3.398438 1.53125 -3.679688 1.15625 -4.015625 C 0.789062 -4.359375 0.609375 -4.773438 0.609375 -5.265625 C 0.609375 -5.828125 0.832031 -6.289062 1.28125 -6.65625 C 1.726562 -7.019531 2.3125 -7.203125 3.03125 -7.203125 C 3.519531 -7.203125 3.953125 -7.109375 4.328125 -6.921875 C 4.710938 -6.734375 5.007812 -6.472656 5.21875 -6.140625 C 5.4375 -5.804688 5.546875 -5.441406 5.546875 -5.046875 L 4.59375 -5.046875 C 4.59375 -5.484375 4.457031 -5.820312 4.1875 -6.0625 C 3.914062 -6.3125 3.53125 -6.4375 3.03125 -6.4375 C 2.570312 -6.4375 2.210938 -6.332031 1.953125 -6.125 C 1.691406 -5.925781 1.5625 -5.644531 1.5625 -5.28125 C 1.5625 -4.988281 1.679688 -4.742188 1.921875 -4.546875 C 2.171875 -4.347656 2.59375 -4.164062 3.1875 -4 C 3.78125 -3.832031 4.242188 -3.648438 4.578125 -3.453125 C 4.910156 -3.253906 5.15625 -3.019531 5.3125 -2.75 C 5.476562 -2.476562 5.5625 -2.164062 5.5625 -1.8125 C 5.5625 -1.226562 5.332031 -0.765625 4.875 -0.421875 C 4.425781 -0.078125 3.828125 0.09375 3.078125 0.09375 C 2.585938 0.09375 2.128906 0 1.703125 -0.1875 C 1.285156 -0.375 0.960938 -0.628906 0.734375 -0.953125 C 0.503906 -1.273438 0.390625 -1.644531 0.390625 -2.0625 L 1.328125 -2.0625 C 1.328125 -1.632812 1.484375 -1.296875 1.796875 -1.046875 C 2.117188 -0.796875 2.546875 -0.671875 3.078125 -0.671875 C 3.578125 -0.671875 3.957031 -0.769531 4.21875 -0.96875 C 4.476562 -1.175781 4.609375 -1.453125 4.609375 -1.796875 C 4.609375 -2.140625 4.484375 -2.40625 4.234375 -2.59375 C 3.992188 -2.789062 3.554688 -2.984375 2.921875 -3.171875 Z M 2.921875 -3.171875 "/></g></g></g><g fill="#f9a72b" fill-opacity="1"><g transform="translate(166.044648, 280.597803)"><g><path d="M 6.296875 -3.328125 C 6.296875 -2.628906 6.175781 -2.019531 5.9375 -1.5 C 5.707031 -0.976562 5.375 -0.582031 4.9375 -0.3125 C 4.507812 -0.0390625 4.007812 0.09375 3.4375 0.09375 C 2.882812 0.09375 2.390625 -0.0390625 1.953125 -0.3125 C 1.515625 -0.59375 1.175781 -0.984375 0.9375 -1.484375 C 0.707031 -1.992188 0.585938 -2.585938 0.578125 -3.265625 L 0.578125 -3.78125 C 0.578125 -4.457031 0.695312 -5.054688 0.9375 -5.578125 C 1.175781 -6.109375 1.507812 -6.507812 1.9375 -6.78125 C 2.375 -7.0625 2.875 -7.203125 3.4375 -7.203125 C 4 -7.203125 4.5 -7.0625 4.9375 -6.78125 C 5.375 -6.507812 5.707031 -6.113281 5.9375 -5.59375 C 6.175781 -5.070312 6.296875 -4.46875 6.296875 -3.78125 Z M 5.359375 -3.78125 C 5.359375 -4.625 5.1875 -5.269531 4.84375 -5.71875 C 4.507812 -6.175781 4.039062 -6.40625 3.4375 -6.40625 C 2.84375 -6.40625 2.375 -6.175781 2.03125 -5.71875 C 1.695312 -5.269531 1.523438 -4.644531 1.515625 -3.84375 L 1.515625 -3.328125 C 1.515625 -2.503906 1.6875 -1.859375 2.03125 -1.390625 C 2.375 -0.929688 2.84375 -0.703125 3.4375 -0.703125 C 4.039062 -0.703125 4.507812 -0.921875 4.84375 -1.359375 C 5.175781 -1.796875 5.347656 -2.425781 5.359375 -3.25 Z M 5.359375 -3.78125 "/></g></g></g><g fill="#f9a72b" fill-opacity="1"><g transform="translate(176.916952, 280.597803)"><g><path d="M 6.0625 -2.25 C 5.96875 -1.5 5.6875 -0.921875 5.21875 -0.515625 C 4.75 -0.109375 4.128906 0.09375 3.359375 0.09375 C 2.515625 0.09375 1.835938 -0.203125 1.328125 -0.796875 C 0.828125 -1.398438 0.578125 -2.207031 0.578125 -3.21875 L 0.578125 -3.90625 C 0.578125 -4.5625 0.695312 -5.140625 0.9375 -5.640625 C 1.175781 -6.148438 1.507812 -6.535156 1.9375 -6.796875 C 2.375 -7.066406 2.875 -7.203125 3.4375 -7.203125 C 4.195312 -7.203125 4.800781 -6.988281 5.25 -6.5625 C 5.707031 -6.144531 5.976562 -5.566406 6.0625 -4.828125 L 5.109375 -4.828125 C 5.023438 -5.390625 4.847656 -5.796875 4.578125 -6.046875 C 4.304688 -6.304688 3.925781 -6.4375 3.4375 -6.4375 C 2.84375 -6.4375 2.375 -6.210938 2.03125 -5.765625 C 1.695312 -5.328125 1.53125 -4.695312 1.53125 -3.875 L 1.53125 -3.1875 C 1.53125 -2.414062 1.6875 -1.800781 2 -1.34375 C 2.320312 -0.894531 2.773438 -0.671875 3.359375 -0.671875 C 3.878906 -0.671875 4.273438 -0.785156 4.546875 -1.015625 C 4.828125 -1.253906 5.015625 -1.664062 5.109375 -2.25 Z M 6.0625 -2.25 "/></g></g></g><g fill="#f9a72b" fill-opacity="1"><g transform="translate(187.423192, 280.597803)"><g><path d="M 1.828125 0 L 0.890625 0 L 0.890625 -7.109375 L 1.828125 -7.109375 Z M 1.828125 0 "/></g></g></g><g fill="#f9a72b" fill-opacity="1"><g transform="translate(194.141852, 280.597803)"><g><path d="M 4.75 -1.859375 L 1.765625 -1.859375 L 1.109375 0 L 0.140625 0 L 2.859375 -7.109375 L 3.671875 -7.109375 L 6.390625 0 L 5.4375 0 Z M 2.0625 -2.625 L 4.46875 -2.625 L 3.265625 -5.953125 Z M 2.0625 -2.625 "/></g></g></g><g fill="#f9a72b" fill-opacity="1"><g transform="translate(204.662731, 280.597803)"><g><path d="M 5.734375 -6.34375 L 3.453125 -6.34375 L 3.453125 0 L 2.515625 0 L 2.515625 -6.34375 L 0.234375 -6.34375 L 0.234375 -7.109375 L 5.734375 -7.109375 Z M 5.734375 -6.34375 "/></g></g></g><g fill="#f9a72b" fill-opacity="1"><g transform="translate(214.627187, 280.597803)"><g><path d="M 1.828125 0 L 0.890625 0 L 0.890625 -7.109375 L 1.828125 -7.109375 Z M 1.828125 0 "/></g></g></g><g fill="#f9a72b" fill-opacity="1"><g transform="translate(221.345846, 280.597803)"><g><path d="M 6.296875 -3.328125 C 6.296875 -2.628906 6.175781 -2.019531 5.9375 -1.5 C 5.707031 -0.976562 5.375 -0.582031 4.9375 -0.3125 C 4.507812 -0.0390625 4.007812 0.09375 3.4375 0.09375 C 2.882812 0.09375 2.390625 -0.0390625 1.953125 -0.3125 C 1.515625 -0.59375 1.175781 -0.984375 0.9375 -1.484375 C 0.707031 -1.992188 0.585938 -2.585938 0.578125 -3.265625 L 0.578125 -3.78125 C 0.578125 -4.457031 0.695312 -5.054688 0.9375 -5.578125 C 1.175781 -6.109375 1.507812 -6.507812 1.9375 -6.78125 C 2.375 -7.0625 2.875 -7.203125 3.4375 -7.203125 C 4 -7.203125 4.5 -7.0625 4.9375 -6.78125 C 5.375 -6.507812 5.707031 -6.113281 5.9375 -5.59375 C 6.175781 -5.070312 6.296875 -4.46875 6.296875 -3.78125 Z M 5.359375 -3.78125 C 5.359375 -4.625 5.1875 -5.269531 4.84375 -5.71875 C 4.507812 -6.175781 4.039062 -6.40625 3.4375 -6.40625 C 2.84375 -6.40625 2.375 -6.175781 2.03125 -5.71875 C 1.695312 -5.269531 1.523438 -4.644531 1.515625 -3.84375 L 1.515625 -3.328125 C 1.515625 -2.503906 1.6875 -1.859375 2.03125 -1.390625 C 2.375 -0.929688 2.84375 -0.703125 3.4375 -0.703125 C 4.039062 -0.703125 4.507812 -0.921875 4.84375 -1.359375 C 5.175781 -1.796875 5.347656 -2.425781 5.359375 -3.25 Z M 5.359375 -3.78125 "/></g></g></g><g fill="#f9a72b" fill-opacity="1"><g transform="translate(232.218145, 280.597803)"><g><path d="M 6.296875 0 L 5.34375 0 L 1.765625 -5.484375 L 1.765625 0 L 0.828125 0 L 0.828125 -7.109375 L 1.765625 -7.109375 L 5.359375 -1.609375 L 5.359375 -7.109375 L 6.296875 -7.109375 Z M 6.296875 0 "/></g></g></g><g fill="#1a1821" fill-opacity="1"><g transform="translate(51.836891, 261.347839)"><g><path d="M 13.078125 -4.46875 L 7.40625 -4.46875 L 6.359375 0 L -0.265625 0 L 5.09375 -19.015625 C 5.238281 -19.515625 5.507812 -19.921875 5.90625 -20.234375 C 6.3125 -20.546875 6.773438 -20.703125 7.296875 -20.703125 L 13.203125 -20.703125 C 13.722656 -20.703125 14.179688 -20.546875 14.578125 -20.234375 C 14.984375 -19.921875 15.253906 -19.515625 15.390625 -19.015625 L 20.765625 0 L 14.125 0 Z M 12.03125 -9.03125 L 11.015625 -13.46875 C 10.828125 -14.40625 10.707031 -15.195312 10.65625 -15.84375 L 9.84375 -15.84375 C 9.71875 -14.90625 9.597656 -14.113281 9.484375 -13.46875 L 8.453125 -9.03125 Z M 12.03125 -9.03125 "/></g></g></g><g fill="#1a1821" fill-opacity="1"><g transform="translate(75.326895, 261.347839)"><g><path d="M 8.046875 0 L 1.59375 0 L 1.59375 -20.703125 L 8.046875 -20.703125 Z M 8.046875 0 "/></g></g></g><g fill="#1a1821" fill-opacity="1"><g transform="translate(87.956903, 261.347839)"><g/></g></g><g fill="#1a1821" fill-opacity="1"><g transform="translate(97.256921, 261.347839)"><g><path d="M 13.078125 -4.46875 L 7.40625 -4.46875 L 6.359375 0 L -0.265625 0 L 5.09375 -19.015625 C 5.238281 -19.515625 5.507812 -19.921875 5.90625 -20.234375 C 6.3125 -20.546875 6.773438 -20.703125 7.296875 -20.703125 L 13.203125 -20.703125 C 13.722656 -20.703125 14.179688 -20.546875 14.578125 -20.234375 C 14.984375 -19.921875 15.253906 -19.515625 15.390625 -19.015625 L 20.765625 0 L 14.125 0 Z M 12.03125 -9.03125 L 11.015625 -13.46875 C 10.828125 -14.40625 10.707031 -15.195312 10.65625 -15.84375 L 9.84375 -15.84375 C 9.71875 -14.90625 9.597656 -14.113281 9.484375 -13.46875 L 8.453125 -9.03125 Z M 12.03125 -9.03125 "/></g></g></g><g fill="#1a1821" fill-opacity="1"><g transform="translate(120.746925, 261.347839)"><g><path d="M 1.5625 0 L 1.5625 -20.703125 C 3.601562 -20.898438 6.519531 -21 10.3125 -21 C 13.613281 -21 15.867188 -20.507812 17.078125 -19.53125 C 18.296875 -18.550781 18.90625 -16.691406 18.90625 -13.953125 C 18.90625 -11.253906 18.34375 -9.410156 17.21875 -8.421875 C 16.101562 -7.441406 14.101562 -6.953125 11.21875 -6.953125 C 10.132812 -6.953125 9.082031 -7.015625 8.0625 -7.140625 L 8.0625 0 Z M 8.0625 -11.546875 L 10.171875 -11.546875 C 11.046875 -11.546875 11.632812 -11.707031 11.9375 -12.03125 C 12.238281 -12.351562 12.390625 -12.992188 12.390625 -13.953125 C 12.390625 -14.929688 12.238281 -15.582031 11.9375 -15.90625 C 11.632812 -16.238281 11.046875 -16.40625 10.171875 -16.40625 L 8.0625 -16.40625 Z M 8.0625 -11.546875 "/></g></g></g><g fill="#1a1821" fill-opacity="1"><g transform="translate(143.126932, 261.347839)"><g><path d="M 1.5625 0 L 1.5625 -20.703125 C 3.601562 -20.898438 6.519531 -21 10.3125 -21 C 13.613281 -21 15.867188 -20.507812 17.078125 -19.53125 C 18.296875 -18.550781 18.90625 -16.691406 18.90625 -13.953125 C 18.90625 -11.253906 18.34375 -9.410156 17.21875 -8.421875 C 16.101562 -7.441406 14.101562 -6.953125 11.21875 -6.953125 C 10.132812 -6.953125 9.082031 -7.015625 8.0625 -7.140625 L 8.0625 0 Z M 8.0625 -11.546875 L 10.171875 -11.546875 C 11.046875 -11.546875 11.632812 -11.707031 11.9375 -12.03125 C 12.238281 -12.351562 12.390625 -12.992188 12.390625 -13.953125 C 12.390625 -14.929688 12.238281 -15.582031 11.9375 -15.90625 C 11.632812 -16.238281 11.046875 -16.40625 10.171875 -16.40625 L 8.0625 -16.40625 Z M 8.0625 -11.546875 "/></g></g></g><g fill="#1a1821" fill-opacity="1"><g transform="translate(165.50694, 261.347839)"><g><path d="M 8.015625 -20.703125 L 8.015625 -6.234375 C 8.015625 -5.921875 8.128906 -5.660156 8.359375 -5.453125 C 8.585938 -5.253906 8.890625 -5.15625 9.265625 -5.15625 L 16.234375 -5.15625 L 16.53125 -0.296875 C 14.46875 -0.015625 11.097656 0.125 6.421875 0.125 C 4.941406 0.125 3.75 -0.304688 2.84375 -1.171875 C 1.945312 -2.046875 1.5 -3.1875 1.5 -4.59375 L 1.5 -20.703125 Z M 8.015625 -20.703125 "/></g></g></g><g fill="#1a1821" fill-opacity="1"><g transform="translate(185.216949, 261.347839)"><g><path d="M 8.046875 0 L 1.59375 0 L 1.59375 -20.703125 L 8.046875 -20.703125 Z M 8.046875 0 "/></g></g></g><g fill="#1a1821" fill-opacity="1"><g transform="translate(197.846957, 261.347839)"><g><path d="M 17.125 -5.375 L 17.609375 -0.625 C 15.691406 0.03125 13.269531 0.359375 10.34375 0.359375 C 6.90625 0.359375 4.476562 -0.4375 3.0625 -2.03125 C 1.65625 -3.632812 0.953125 -6.40625 0.953125 -10.34375 C 0.953125 -14.289062 1.65625 -17.0625 3.0625 -18.65625 C 4.476562 -20.257812 6.90625 -21.0625 10.34375 -21.0625 C 12.925781 -21.0625 15.195312 -20.789062 17.15625 -20.25 L 16.6875 -15.515625 C 13.882812 -15.546875 11.769531 -15.5625 10.34375 -15.5625 C 9.320312 -15.5625 8.640625 -15.21875 8.296875 -14.53125 C 7.960938 -13.84375 7.796875 -12.445312 7.796875 -10.34375 C 7.796875 -8.25 7.960938 -6.851562 8.296875 -6.15625 C 8.640625 -5.46875 9.320312 -5.125 10.34375 -5.125 C 13.320312 -5.125 15.582031 -5.207031 17.125 -5.375 Z M 17.125 -5.375 "/></g></g></g><g fill="#1a1821" fill-opacity="1"><g transform="translate(218.996965, 261.347839)"><g><path d="M 13.078125 -4.46875 L 7.40625 -4.46875 L 6.359375 0 L -0.265625 0 L 5.09375 -19.015625 C 5.238281 -19.515625 5.507812 -19.921875 5.90625 -20.234375 C 6.3125 -20.546875 6.773438 -20.703125 7.296875 -20.703125 L 13.203125 -20.703125 C 13.722656 -20.703125 14.179688 -20.546875 14.578125 -20.234375 C 14.984375 -19.921875 15.253906 -19.515625 15.390625 -19.015625 L 20.765625 0 L 14.125 0 Z M 12.03125 -9.03125 L 11.015625 -13.46875 C 10.828125 -14.40625 10.707031 -15.195312 10.65625 -15.84375 L 9.84375 -15.84375 C 9.71875 -14.90625 9.597656 -14.113281 9.484375 -13.46875 L 8.453125 -9.03125 Z M 12.03125 -9.03125 "/></g></g></g><g fill="#1a1821" fill-opacity="1"><g transform="translate(242.486968, 261.347839)"><g><path d="M 18.390625 -15.84375 L 12.59375 -15.84375 L 12.59375 0 L 6.09375 0 L 6.09375 -15.84375 L 0.296875 -15.84375 L 0.296875 -20.703125 L 18.390625 -20.703125 Z M 18.390625 -15.84375 "/></g></g></g><g fill="#1a1821" fill-opacity="1"><g transform="translate(264.176966, 261.347839)"><g><path d="M 8.046875 0 L 1.59375 0 L 1.59375 -20.703125 L 8.046875 -20.703125 Z M 8.046875 0 "/></g></g></g><g fill="#1a1821" fill-opacity="1"><g transform="translate(276.806985, 261.347839)"><g><path d="M 10.59375 -21.125 C 13.050781 -21.125 14.953125 -20.816406 16.296875 -20.203125 C 17.648438 -19.597656 18.644531 -18.519531 19.28125 -16.96875 C 19.925781 -15.414062 20.25 -13.207031 20.25 -10.34375 C 20.25 -7.488281 19.925781 -5.285156 19.28125 -3.734375 C 18.644531 -2.179688 17.648438 -1.097656 16.296875 -0.484375 C 14.953125 0.117188 13.050781 0.421875 10.59375 0.421875 C 8.15625 0.421875 6.257812 0.117188 4.90625 -0.484375 C 3.550781 -1.097656 2.550781 -2.179688 1.90625 -3.734375 C 1.269531 -5.285156 0.953125 -7.488281 0.953125 -10.34375 C 0.953125 -13.207031 1.269531 -15.414062 1.90625 -16.96875 C 2.550781 -18.519531 3.550781 -19.597656 4.90625 -20.203125 C 6.257812 -20.816406 8.15625 -21.125 10.59375 -21.125 Z M 12.8125 -15.109375 C 12.445312 -15.898438 11.703125 -16.296875 10.578125 -16.296875 C 9.460938 -16.296875 8.71875 -15.898438 8.34375 -15.109375 C 7.976562 -14.316406 7.796875 -12.726562 7.796875 -10.34375 C 7.796875 -7.96875 7.976562 -6.382812 8.34375 -5.59375 C 8.71875 -4.800781 9.460938 -4.40625 10.578125 -4.40625 C 11.703125 -4.40625 12.445312 -4.800781 12.8125 -5.59375 C 13.1875 -6.382812 13.375 -7.96875 13.375 -10.34375 C 13.375 -12.726562 13.1875 -14.316406 12.8125 -15.109375 Z M 12.8125 -15.109375 "/></g></g></g><g fill="#1a1821" fill-opacity="1"><g transform="translate(301.016983, 261.347839)"><g><path d="M 20.609375 -20.703125 L 20.609375 -2.25 C 20.609375 -0.75 19.859375 0 18.359375 0 L 15.875 0 C 15.25 0 14.769531 -0.140625 14.4375 -0.421875 C 14.113281 -0.703125 13.75 -1.191406 13.34375 -1.890625 L 8.84375 -9 C 8.34375 -9.894531 7.882812 -11.078125 7.46875 -12.546875 L 7.265625 -12.546875 C 7.460938 -11.140625 7.5625 -9.878906 7.5625 -8.765625 L 7.5625 0 L 1.5625 0 L 1.5625 -18.453125 C 1.5625 -19.953125 2.3125 -20.703125 3.8125 -20.703125 L 6.296875 -20.703125 C 6.921875 -20.703125 7.390625 -20.5625 7.703125 -20.28125 C 8.023438 -20 8.394531 -19.507812 8.8125 -18.8125 L 13.140625 -12.03125 C 13.679688 -11.070312 14.210938 -9.890625 14.734375 -8.484375 L 14.9375 -8.484375 C 14.757812 -9.960938 14.660156 -11.210938 14.640625 -12.234375 L 14.640625 -20.703125 Z M 20.609375 -20.703125 "/></g></g></g></svg>